<svg width="189" height="189" viewBox="0 0 189 189" fill="none" xmlns="http://www.w3.org/2000/svg">
<path d="M184.918 83.7105C159.344 83.7105 133.77 83.7105 108.197 83.7105C106.18 83.7105 104.902 84.497 103.967 86.3157C101.262 91.8211 98.459 97.2772 95.6557 102.733C95.3607 103.274 95.0656 103.864 94.5738 104.65C91.3771 98.4078 88.3279 92.5584 85.4262 86.6107C84.3934 84.497 82.9672 83.7105 80.6557 83.7105C55.3279 83.7597 29.9016 83.7597 4.57377 83.7105C3.09836 83.7105 2.06557 84.0055 1.03279 84.8411C0.344262 85.3818 0 86.2174 0 87.0531V87.2005C0 87.7904 0.196721 88.3311 0.491803 88.7735C2.21311 91.4278 3.34426 94.0822 4.77049 96.7365C5.11475 97.3756 5.45902 98.0637 5.85246 98.7027C6.83607 100.325 8.60656 100.866 10.1311 100.079C11.5574 99.3418 12.1967 97.6213 11.5082 95.9501C10.8689 94.4263 10.0328 93.0991 9.29508 91.5753C9.09836 91.1329 8.95082 90.6414 8.65574 90.1498H10.8197C33.2459 90.1498 55.6721 90.0515 78.0984 90.0023C79.5738 90.0023 80.3607 90.3464 81.0492 91.7228C83.459 96.6874 86.0164 101.505 88.5246 106.42C88.7705 106.961 89.0164 107.305 89.459 108.288H87.0984C63.9344 108.288 40.7705 108.337 17.6066 108.337C13.6721 108.337 12.7869 109.271 12.7869 113.105V176.957C12.7869 181.873 13.5738 184.379 16.2787 186.493C18.3934 188.115 21.0492 188.951 23.7049 188.951H165.59C168.295 188.951 170.902 188.164 173.066 186.493C175.77 184.429 176.508 181.971 176.508 177.006C176.508 156.165 176.508 135.274 176.557 114.481C176.557 113.154 176.951 111.68 177.541 110.451C181.033 103.372 184.672 96.2942 188.262 89.265C189.984 85.9225 188.656 83.7597 184.918 83.7105ZM174 103.667C172.426 107.649 170.115 108.681 165.885 108.632C148.721 108.337 131.607 108.485 114.443 108.534C111.246 108.534 109.77 109.517 109.77 111.68C109.77 113.597 110.902 114.58 113.361 114.776C113.705 114.776 114.049 114.776 114.393 114.776H141.59C157.377 114.776 170.164 127.557 170.164 143.335V177.891C170.164 181.528 169.279 182.61 165.639 182.61H23.6557C20.0164 182.61 19.1311 181.578 19.1311 177.94C19.1311 157.688 19.1803 137.338 19.1803 117.037C19.1803 115.759 20.2131 114.776 21.4426 114.776H85.082H92.1148C94.918 114.776 97.5246 113.154 98.7541 110.647V110.598C101.951 104.159 105.246 97.7688 108.443 91.3787C108.885 90.4939 109.377 90.0023 110.508 90.0023C133.525 90.0515 156.492 90.0515 179.459 90.0515C179.754 90.0515 180.049 90.1007 180.689 90.1498C178.377 94.7704 175.82 99.096 174 103.667Z" fill="#2F4858"/>
<path d="M87.2951 0C90.2459 1.32718 89.3606 4.07984 89.6065 6.68505C90.7377 6.68505 91.8197 6.63589 92.9016 6.68505C94.9672 6.78335 96.2459 8.06138 96.1967 9.8801C96.1967 11.748 94.918 12.8785 92.8033 12.9769C91.8197 13.026 90.836 12.9769 89.5082 12.9769C89.5082 14.1074 89.5574 15.1888 89.5082 16.2702C89.459 18.3839 88.2787 19.6127 86.4098 19.6619C84.541 19.6619 83.3115 18.3839 83.2131 16.3685C83.1639 15.3363 83.2131 14.304 83.2131 13.026C81.9836 13.026 80.9016 13.0752 79.8197 13.026C77.8524 12.9769 76.5738 11.748 76.5246 10.0276C76.4754 8.20884 77.8033 6.88166 79.7705 6.78335C80.8033 6.7342 81.836 6.78335 83.0656 6.78335C83.3606 4.37477 82.377 1.5238 85.3279 0.0983095C86.0656 0 86.6557 0 87.2951 0Z" fill="#FF958C"/>
<path d="M121.082 67.5386C122.164 58.9365 125.459 51.0226 130.918 44.0426C135.934 37.6525 142.23 32.8845 149.754 29.6403C152.016 28.6572 153.787 29.1488 154.574 30.9675C155.361 32.7371 154.574 34.3592 152.41 35.3423C138.295 41.7324 129.934 52.4973 127.426 67.8335C127.033 70.1438 125.656 71.3727 123.787 71.1269C122.066 70.9303 120.984 69.5048 121.082 67.5386Z" fill="#2F4858"/>
<path d="M65.0656 65.9165C65.164 69.2099 63.9836 70.7337 62.0656 70.7828C60.1967 70.832 58.9672 69.4557 58.8197 67.0962C58.082 56.1347 53.3607 47.2869 44.8033 40.4052C44.4099 40.1103 44.0164 39.8154 43.623 39.5204C42.1476 38.1932 41.9017 36.522 42.9345 35.0965C44.0164 33.671 45.8853 33.3761 47.5082 34.6049C58.2787 42.6663 64.1804 53.3821 65.0656 65.9165Z" fill="#2F4858"/>
<path d="M152.066 10.1259C148.23 5.70195 147.836 4.47308 149.508 2.90012C150.689 1.76957 152.066 1.57295 153.393 2.50689C154.475 3.29336 155.41 4.27646 156.836 5.60364C157.525 4.71885 158.115 3.73576 158.902 2.99843C160.328 1.6221 162.098 1.6221 163.377 2.85097C164.656 4.07984 164.705 5.84941 163.426 7.32405C162.689 8.15968 161.754 8.79869 160.279 10.0767C161.41 10.8632 162.344 11.3056 163.033 11.9446C164.754 13.6159 164.803 15.3854 163.426 16.7618C162.049 18.0889 160.23 17.9415 158.557 16.2702C157.918 15.6312 157.377 14.8447 156.443 13.7633C155.459 14.943 154.82 15.9753 153.934 16.7618C152.508 18.0398 150.689 17.9415 149.508 16.6635C148.328 15.3854 148.328 13.7142 149.607 12.3378C150.246 11.5514 151.131 10.9123 152.066 10.1259Z" fill="#FF958C"/>
<path d="M12.6885 13.3701C13.082 10.6666 11.8033 6.8325 15.9344 6.8325C20.1639 6.8325 18.6885 10.7157 19.1803 13.2226C21.7377 13.7633 25.7213 12.2395 25.6229 16.6635C25.5246 20.8416 21.6885 19.2195 19.082 19.8094C19.082 20.8416 19.1311 21.923 19.082 23.0044C19.0328 24.9706 17.8525 26.1995 16.082 26.2486C14.2623 26.2978 12.9344 25.0198 12.8361 23.0044C12.7869 21.923 12.8361 20.8416 12.8361 19.5636C11.5082 19.5636 10.4262 19.6127 9.34426 19.5636C7.4754 19.4653 6.29507 18.2856 6.19671 16.6143C6.09835 14.8939 7.37704 13.4684 9.19671 13.3209C10.3279 13.2718 11.459 13.3701 12.6885 13.3701Z" fill="#FF958C"/>
<path d="M170.115 60.0671C170.607 57.4619 169.131 53.4312 173.557 53.6278C177.443 53.7753 176.312 57.4127 176.607 60.1654C177.59 60.1654 178.623 60.1163 179.607 60.1654C181.771 60.2146 183.148 61.4926 183.148 63.3113C183.148 65.1792 181.771 66.3589 179.557 66.4081C178.574 66.4081 177.639 66.4081 176.656 66.4081C176.115 69.0624 177.639 73.044 173.164 72.9456C168.984 72.8473 170.607 69.0133 170.016 66.4081C168.885 66.4081 167.754 66.4572 166.623 66.4081C164.754 66.3098 163.574 65.13 163.525 63.4096C163.475 61.6892 164.607 60.4112 166.377 60.1654C166.967 60.0671 167.607 60.1163 168.197 60.1163C168.836 60.1163 169.426 60.0671 170.115 60.0671Z" fill="#FF958C"/>
<path d="M25.0328 63.3113C23.3115 60.8044 19.5246 59.1332 22.4754 56.0856C25.4754 53.038 27.1967 56.8229 29.6065 58.4942C30.2951 57.7077 30.9344 56.8229 31.7213 56.0856C33.1475 54.7092 34.8688 54.7092 36.1967 55.9381C37.5246 57.167 37.5246 59.084 36.1475 60.5095C35.459 61.296 34.6229 61.935 33.4426 63.0164C34.4262 63.852 35.3606 64.491 36.0983 65.2283C37.4754 66.703 37.5246 68.5709 36.2951 69.8489C35.0164 71.1269 33.1967 71.1269 31.7213 69.7014C30.9836 68.9641 30.3934 68.1285 29.4098 66.9488C28.4754 68.0793 27.836 68.8658 27.0983 69.6031C25.5246 71.1269 23.6557 71.1761 22.377 69.7997C21.1475 68.5217 21.2459 66.6538 22.6721 65.2283C23.3606 64.491 24.2459 63.9012 25.0328 63.3113Z" fill="#FF958C"/>
<path d="M91.4754 48.614C91.7213 43.1087 93.1967 37.9966 95.9508 33.1794C97.1311 31.1641 98.8524 30.5251 100.525 31.459C102.197 32.393 102.59 34.2117 101.41 36.2762C98.9016 40.7984 97.7213 45.6156 97.7705 50.7277C97.8197 53.1363 96.6885 54.5126 94.7705 54.5618C92.7541 54.6109 91.5738 53.2837 91.4754 50.7768C91.4754 50.0887 91.4754 49.3514 91.4754 48.614Z" fill="#2F4858"/>
<path d="M116.262 17.6957C117.984 17.6957 119.41 19.072 119.41 20.8416C119.41 22.7586 117.689 24.2333 115.426 24.3316C113.705 24.3808 112.23 23.0044 112.18 21.284C112.082 19.367 113.951 17.7449 116.262 17.6957Z" fill="#FF958C"/>
<path d="M50.5082 19.6127C48.7377 19.5636 47.3606 18.1381 47.459 16.4177C47.5082 14.7956 48.9344 13.4193 50.5574 13.4193C52.2787 13.4193 53.7049 14.8939 53.7049 16.6143C53.7049 18.2856 52.2787 19.6619 50.5082 19.6127Z" fill="#FF958C"/>
<path d="M104.902 67.6861C104.852 69.3573 103.279 70.832 101.607 70.7337C99.8361 70.6845 98.5574 69.259 98.6558 67.4403C98.7049 65.7691 100.082 64.491 101.754 64.491C103.475 64.5402 104.951 66.0148 104.902 67.6861Z" fill="#FF958C"/>
<path d="M69.4918 28.4114C69.4426 30.1319 67.9672 31.459 66.1967 31.4099C64.4262 31.3607 63.1476 29.9352 63.2459 28.1657C63.3443 26.4944 64.7213 25.1672 66.3934 25.2164C68.0656 25.2164 69.541 26.7402 69.4918 28.4114Z" fill="#FF958C"/>
<path d="M172.574 33.0811C174.344 33.0811 175.721 34.5558 175.672 36.227C175.623 37.8492 174.197 39.2255 172.574 39.2746C170.852 39.3238 169.426 37.8983 169.426 36.1287C169.426 34.4083 170.803 33.0811 172.574 33.0811Z" fill="#FF958C"/>
<path d="M126.148 141.566C124.377 141.566 122.951 140.14 122.951 138.371V122.15C122.951 120.38 124.377 118.954 126.148 118.954C127.918 118.954 129.344 120.38 129.344 122.15V138.371C129.344 140.14 127.918 141.566 126.148 141.566Z" fill="black"/>
<path d="M165.738 130.997H149.508C147.738 130.997 146.311 129.572 146.311 127.802C146.311 126.033 147.738 124.607 149.508 124.607H165.738C167.508 124.607 168.934 126.033 168.934 127.802C168.934 129.572 167.508 130.997 165.738 130.997Z" fill="#2F4858"/>
<path d="M126.148 184.822C124.377 184.822 122.951 183.396 122.951 181.627V165.406C122.951 163.636 124.377 162.211 126.148 162.211C127.918 162.211 129.344 163.636 129.344 165.406V181.627C129.344 183.396 127.918 184.822 126.148 184.822Z" fill="black"/>
<path d="M157.623 163.194C155.852 163.194 154.426 161.768 154.426 159.999V143.778C154.426 142.008 155.852 140.583 157.623 140.583C159.393 140.583 160.82 142.008 160.82 143.778V159.999C160.82 161.768 159.393 163.194 157.623 163.194Z" fill="#2F4858"/>
<path d="M165.738 174.254H149.508C147.738 174.254 146.311 172.828 146.311 171.059C146.311 169.289 147.738 167.863 149.508 167.863H165.738C167.508 167.863 168.934 169.289 168.934 171.059C168.934 172.828 167.508 174.254 165.738 174.254Z" fill="#2F4858"/>
<path d="M126.148 141.566C124.377 141.566 122.951 140.14 122.951 138.371V122.15C122.951 120.38 124.377 118.954 126.148 118.954C127.918 118.954 129.344 120.38 129.344 122.15V138.371C129.344 140.14 127.918 141.566 126.148 141.566Z" fill="black"/>
<path d="M134.262 152.625H118.033C116.262 152.625 114.836 151.2 114.836 149.43C114.836 147.661 116.262 146.235 118.033 146.235H134.262C136.033 146.235 137.459 147.661 137.459 149.43C137.459 151.2 136.033 152.625 134.262 152.625Z" fill="black"/>
<path d="M126.148 141.566C124.377 141.566 122.951 140.14 122.951 138.371V122.15C122.951 120.38 124.377 118.954 126.148 118.954C127.918 118.954 129.344 120.38 129.344 122.15V138.371C129.344 140.14 127.918 141.566 126.148 141.566Z" fill="black"/>
<path d="M62.7049 141.566C60.9344 141.566 59.5082 140.14 59.5082 138.371V122.15C59.5082 120.38 60.9344 118.954 62.7049 118.954C64.4754 118.954 65.9016 120.38 65.9016 122.15V138.371C65.9016 140.14 64.4754 141.566 62.7049 141.566Z" fill="black"/>
<path d="M134.262 103.962H118.033C116.262 103.962 114.836 102.537 114.836 100.767C114.836 98.9977 116.262 97.5722 118.033 97.5722H134.262C136.033 97.5722 137.459 98.9977 137.459 100.767C137.459 102.537 136.033 103.962 134.262 103.962Z" fill="#2F4858"/>
<path d="M102.295 130.997H86.0656C84.2951 130.997 82.8688 129.572 82.8688 127.802C82.8688 126.033 84.2951 124.607 86.0656 124.607H102.295C104.066 124.607 105.492 126.033 105.492 127.802C105.492 129.572 104.066 130.997 102.295 130.997Z" fill="#2F4858"/>
<path d="M126.148 184.822C124.377 184.822 122.951 183.396 122.951 181.627V165.406C122.951 163.636 124.377 162.211 126.148 162.211C127.918 162.211 129.344 163.636 129.344 165.406V181.627C129.344 183.396 127.918 184.822 126.148 184.822Z" fill="#2F4858"/>
<path d="M62.7049 184.822C60.9344 184.822 59.5082 183.396 59.5082 181.627V165.406C59.5082 163.636 60.9344 162.211 62.7049 162.211C64.4754 162.211 65.9016 163.636 65.9016 165.406V181.627C65.9016 183.396 64.4754 184.822 62.7049 184.822Z" fill="black"/>
<path d="M126.148 141.566C124.377 141.566 122.951 140.14 122.951 138.371V122.15C122.951 120.38 124.377 118.954 126.148 118.954C127.918 118.954 129.344 120.38 129.344 122.15V138.371C129.344 140.14 127.918 141.566 126.148 141.566Z" fill="#2F4858"/>
<path d="M134.262 152.625H118.033C116.262 152.625 114.836 151.2 114.836 149.43C114.836 147.661 116.262 146.235 118.033 146.235H134.262C136.033 146.235 137.459 147.661 137.459 149.43C137.459 151.2 136.033 152.625 134.262 152.625Z" fill="#2F4858"/>
<path d="M94.1803 163.194C92.4098 163.194 90.9836 161.768 90.9836 159.999V143.778C90.9836 142.008 92.4098 140.583 94.1803 140.583C95.9508 140.583 97.377 142.008 97.377 143.778V159.999C97.377 161.768 95.9508 163.194 94.1803 163.194Z" fill="#2F4858"/>
<path d="M102.295 174.254H86.0656C84.2951 174.254 82.8688 172.828 82.8688 171.059C82.8688 169.289 84.2951 167.863 86.0656 167.863H102.295C104.066 167.863 105.492 169.289 105.492 171.059C105.492 172.828 104.066 174.254 102.295 174.254Z" fill="#2F4858"/>
<path d="M62.7049 141.566C60.9344 141.566 59.5082 140.14 59.5082 138.371V122.15C59.5082 120.38 60.9344 118.954 62.7049 118.954C64.4754 118.954 65.9016 120.38 65.9016 122.15V138.371C65.9016 140.14 64.4754 141.566 62.7049 141.566Z" fill="black"/>
<path d="M70.8197 152.625H54.5902C52.8197 152.625 51.3934 151.2 51.3934 149.43C51.3934 147.661 52.8197 146.235 54.5902 146.235H70.8197C72.5902 146.235 74.0164 147.661 74.0164 149.43C74.0164 151.2 72.5902 152.625 70.8197 152.625Z" fill="black"/>
<path d="M62.7049 141.566C60.9344 141.566 59.5082 140.14 59.5082 138.371V122.15C59.5082 120.38 60.9344 118.954 62.7049 118.954C64.4754 118.954 65.9016 120.38 65.9016 122.15V138.371C65.9016 140.14 64.4754 141.566 62.7049 141.566Z" fill="black"/>
<path d="M70.8197 103.962H54.5902C52.8197 103.962 51.3934 102.537 51.3934 100.767C51.3934 98.9977 52.8197 97.5722 54.5902 97.5722H70.8197C72.5902 97.5722 74.0164 98.9977 74.0164 100.767C74.0164 102.537 72.5902 103.962 70.8197 103.962Z" fill="#2F4858"/>
<path d="M39.3443 130.997H23.1148C21.3443 130.997 19.918 129.572 19.918 127.802C19.918 126.033 21.3443 124.607 23.1148 124.607H39.3443C41.1148 124.607 42.541 126.033 42.541 127.802C42.541 129.572 41.1148 130.997 39.3443 130.997Z" fill="#2F4858"/>
<path d="M62.7049 184.822C60.9344 184.822 59.5082 183.396 59.5082 181.627V165.406C59.5082 163.636 60.9344 162.211 62.7049 162.211C64.4754 162.211 65.9016 163.636 65.9016 165.406V181.627C65.9016 183.396 64.4754 184.822 62.7049 184.822Z" fill="#2F4858"/>
<path d="M62.7049 141.566C60.9344 141.566 59.5082 140.14 59.5082 138.371V122.15C59.5082 120.38 60.9344 118.954 62.7049 118.954C64.4754 118.954 65.9016 120.38 65.9016 122.15V138.371C65.9016 140.14 64.4754 141.566 62.7049 141.566Z" fill="#2F4858"/>
<path d="M70.8197 152.625H54.5902C52.8197 152.625 51.3934 151.2 51.3934 149.43C51.3934 147.661 52.8197 146.235 54.5902 146.235H70.8197C72.5902 146.235 74.0164 147.661 74.0164 149.43C74.0164 151.2 72.5902 152.625 70.8197 152.625Z" fill="#2F4858"/>
<path d="M31.2295 163.194C29.459 163.194 28.0328 161.768 28.0328 159.999V143.778C28.0328 142.008 29.459 140.583 31.2295 140.583C33 140.583 34.4262 142.008 34.4262 143.778V159.999C34.4262 161.768 33 163.194 31.2295 163.194Z" fill="#2F4858"/>
<path d="M39.3443 174.254H23.1148C21.3443 174.254 19.918 172.828 19.918 171.059C19.918 169.289 21.3443 167.863 23.1148 167.863H39.3443C41.1148 167.863 42.541 169.289 42.541 171.059C42.541 172.828 41.1148 174.254 39.3443 174.254Z" fill="#2F4858"/>
</svg>
