<svg width="1004" height="412" viewBox="0 0 1004 412" fill="none" xmlns="http://www.w3.org/2000/svg">
<path d="M376 170.3C324 170.3 272 170.3 220 170.3C215.9 170.3 213.3 171.9 211.4 175.6C205.9 186.8 200.2 197.9 194.5 209C193.9 210.1 193.3 211.3 192.3 212.9C185.8 200.2 179.6 188.3 173.7 176.2C171.6 171.9 168.7 170.3 164 170.3C112.5 170.4 60.8 170.4 9.3 170.3C6.3 170.3 4.2 170.9 2.1 172.6C0.7 173.7 0 175.4 0 177.1V177.4C0 178.6 0.4 179.7 1 180.6C4.5 186 6.8 191.4 9.7 196.8C10.4 198.1 11.1 199.5 11.9 200.8C13.9 204.1 17.5 205.2 20.6 203.6C23.5 202.1 24.8 198.6 23.4 195.2C22.1 192.1 20.4 189.4 18.9 186.3C18.5 185.4 18.2 184.4 17.6 183.4H22C67.6 183.4 113.2 183.2 158.8 183.1C161.8 183.1 163.4 183.8 164.8 186.6C169.7 196.7 174.9 206.5 180 216.5C180.5 217.6 181 218.3 181.9 220.3H177.1C130 220.3 82.9 220.4 35.8 220.4C27.8 220.4 26 222.3 26 230.1V360C26 370 27.6 375.1 33.1 379.4C37.4 382.7 42.8 384.4 48.2 384.4H336.7C342.2 384.4 347.5 382.8 351.9 379.4C357.4 375.2 358.9 370.2 358.9 360.1C358.9 317.7 358.9 275.2 359 232.9C359 230.2 359.8 227.2 361 224.7C368.1 210.3 375.5 195.9 382.8 181.6C386.3 174.8 383.6 170.4 376 170.3ZM353.8 210.9C350.6 219 345.9 221.1 337.3 221C302.4 220.4 267.6 220.7 232.7 220.8C226.2 220.8 223.2 222.8 223.2 227.2C223.2 231.1 225.5 233.1 230.5 233.5C231.2 233.5 231.9 233.5 232.6 233.5H287.9C320 233.5 346 259.5 346 291.6V361.9C346 369.3 344.2 371.5 336.8 371.5H48.1C40.7 371.5 38.9 369.4 38.9 362C38.9 320.8 39 279.4 39 238.1C39 235.5 41.1 233.5 43.6 233.5H173H187.3C193 233.5 198.3 230.2 200.8 225.1V225C207.3 211.9 214 198.9 220.5 185.9C221.4 184.1 222.4 183.1 224.7 183.1C271.5 183.2 318.2 183.2 364.9 183.2C365.5 183.2 366.1 183.3 367.4 183.4C362.7 192.8 357.5 201.6 353.8 210.9Z" fill="#2F4858"/>
<path d="M177.5 0C183.5 2.7 181.7 8.3 182.2 13.6C184.5 13.6 186.7 13.5 188.9 13.6C193.1 13.8 195.7 16.4 195.6 20.1C195.6 23.9 193 26.2 188.7 26.4C186.7 26.5 184.7 26.4 182 26.4C182 28.7 182.1 30.9 182 33.1C181.9 37.4 179.5 39.9 175.7 40C171.9 40 169.4 37.4 169.2 33.3C169.1 31.2 169.2 29.1 169.2 26.5C166.7 26.5 164.5 26.6 162.3 26.5C158.3 26.4 155.7 23.9 155.6 20.4C155.5 16.7 158.2 14 162.2 13.8C164.3 13.7 166.4 13.8 168.9 13.8C169.5 8.9 167.5 3.1 173.5 0.2C175 0 176.2 0 177.5 0Z" fill="#FF958C"/>
<path d="M246.2 137.4C248.4 119.9 255.1 103.8 266.2 89.6C276.4 76.6 289.2 66.9 304.5 60.3C309.1 58.3 312.7 59.3 314.3 63C315.9 66.6 314.3 69.9 309.9 71.9C281.2 84.9 264.2 106.8 259.1 138C258.3 142.7 255.5 145.2 251.7 144.7C248.2 144.3 246 141.4 246.2 137.4Z" fill="#2F4858"/>
<path d="M132.3 134.1C132.5 140.8 130.1 143.9 126.2 144C122.4 144.1 119.9 141.3 119.6 136.5C118.1 114.2 108.5 96.2 91.1 82.2C90.3 81.6 89.5 81 88.7 80.4C85.7 77.7 85.2 74.3 87.3 71.4C89.5 68.5 93.3 67.9 96.6 70.4C118.5 86.8 130.5 108.6 132.3 134.1Z" fill="#2F4858"/>
<path d="M309.2 20.6C301.4 11.6 300.6 9.1 304 5.9C306.4 3.6 309.2 3.2 311.9 5.1C314.1 6.7 316 8.7 318.9 11.4C320.3 9.6 321.5 7.6 323.1 6.1C326 3.3 329.6 3.3 332.2 5.8C334.8 8.3 334.9 11.9 332.3 14.9C330.8 16.6 328.9 17.9 325.9 20.5C328.2 22.1 330.1 23 331.5 24.3C335 27.7 335.1 31.3 332.3 34.1C329.5 36.8 325.8 36.5 322.4 33.1C321.1 31.8 320 30.2 318.1 28C316.1 30.4 314.8 32.5 313 34.1C310.1 36.7 306.4 36.5 304 33.9C301.6 31.3 301.6 27.9 304.2 25.1C305.5 23.5 307.3 22.2 309.2 20.6Z" fill="#FF958C"/>
<path d="M25.8 27.2C26.6 21.7 24 13.9 32.4 13.9C41 13.9 38 21.8 39 26.9C44.2 28 52.3 24.9 52.1 33.9C51.9 42.4 44.1 39.1 38.8 40.3C38.8 42.4 38.9 44.6 38.8 46.8C38.7 50.8 36.3 53.3 32.7 53.4C29 53.5 26.3 50.9 26.1 46.8C26 44.6 26.1 42.4 26.1 39.8C23.4 39.8 21.2 39.9 19 39.8C15.2 39.6 12.8 37.2 12.6 33.8C12.4 30.3 15 27.4 18.7 27.1C21 27 23.3 27.2 25.8 27.2Z" fill="#FF958C"/>
<path d="M345.9 122.2C346.9 116.9 343.9 108.7 352.9 109.1C360.8 109.4 358.5 116.8 359.1 122.4C361.1 122.4 363.2 122.3 365.2 122.4C369.6 122.5 372.4 125.1 372.4 128.8C372.4 132.6 369.6 135 365.1 135.1C363.1 135.1 361.2 135.1 359.2 135.1C358.1 140.5 361.2 148.6 352.1 148.4C343.6 148.2 346.9 140.4 345.7 135.1C343.4 135.1 341.1 135.2 338.8 135.1C335 134.9 332.6 132.5 332.5 129C332.4 125.5 334.7 122.9 338.3 122.4C339.5 122.2 340.8 122.3 342 122.3C343.3 122.3 344.5 122.2 345.9 122.2Z" fill="#FF958C"/>
<path d="M50.9 128.8C47.4 123.7 39.7 120.3 45.7 114.1C51.8 107.9 55.3 115.6 60.2 119C61.6 117.4 62.9 115.6 64.5 114.1C67.4 111.3 70.9 111.3 73.6 113.8C76.3 116.3 76.3 120.2 73.5 123.1C72.1 124.7 70.4 126 68 128.2C70 129.9 71.9 131.2 73.4 132.7C76.2 135.7 76.3 139.5 73.8 142.1C71.2 144.7 67.5 144.7 64.5 141.8C63 140.3 61.8 138.6 59.8 136.2C57.9 138.5 56.6 140.1 55.1 141.6C51.9 144.7 48.1 144.8 45.5 142C43 139.4 43.2 135.6 46.1 132.7C47.5 131.2 49.3 130 50.9 128.8Z" fill="#FF958C"/>
<path d="M186 98.9C186.5 87.7 189.5 77.3 195.1 67.5C197.5 63.4 201 62.1 204.4 64C207.8 65.9 208.6 69.6 206.2 73.8C201.1 83 198.7 92.8 198.8 103.2C198.9 108.1 196.6 110.9 192.7 111C188.6 111.1 186.2 108.4 186 103.3C186 101.9 186 100.4 186 98.9Z" fill="#2F4858"/>
<path d="M236.4 36C239.9 36 242.8 38.8 242.8 42.4C242.8 46.3 239.3 49.3 234.7 49.5C231.2 49.6 228.2 46.8 228.1 43.3C227.9 39.4 231.7 36.1 236.4 36Z" fill="#FF958C"/>
<path d="M102.7 39.9C99.1 39.8 96.3 36.9 96.5 33.4C96.6 30.1 99.5 27.3 102.8 27.3C106.3 27.3 109.2 30.3 109.2 33.8C109.2 37.2 106.3 40 102.7 39.9Z" fill="#FF958C"/>
<path d="M213.3 137.7C213.2 141.1 210 144.1 206.6 143.9C203 143.8 200.4 140.9 200.6 137.2C200.7 133.8 203.5 131.2 206.9 131.2C210.4 131.3 213.4 134.3 213.3 137.7Z" fill="#FF958C"/>
<path d="M141.3 57.8C141.2 61.3 138.2 64 134.6 63.9C131 63.8 128.4 60.9 128.6 57.3C128.8 53.9 131.6 51.2 135 51.3C138.4 51.3 141.4 54.4 141.3 57.8Z" fill="#FF958C"/>
<path d="M350.9 67.3C354.5 67.3 357.3 70.3 357.2 73.7C357.1 77 354.2 79.8 350.9 79.9C347.4 80 344.5 77.1 344.5 73.5C344.5 70 347.3 67.3 350.9 67.3Z" fill="#FF958C"/>
<path d="M256.5 288C252.9 288 250 285.1 250 281.5V248.5C250 244.9 252.9 242 256.5 242C260.1 242 263 244.9 263 248.5V281.5C263 285.1 260.1 288 256.5 288Z" fill="black"/>
<path d="M337 266.5H304C300.4 266.5 297.5 263.6 297.5 260C297.5 256.4 300.4 253.5 304 253.5H337C340.6 253.5 343.5 256.4 343.5 260C343.5 263.6 340.6 266.5 337 266.5Z" fill="#2F4858"/>
<path d="M256.5 376C252.9 376 250 373.1 250 369.5V336.5C250 332.9 252.9 330 256.5 330C260.1 330 263 332.9 263 336.5V369.5C263 373.1 260.1 376 256.5 376Z" fill="black"/>
<path d="M320.5 332C316.9 332 314 329.1 314 325.5V292.5C314 288.9 316.9 286 320.5 286C324.1 286 327 288.9 327 292.5V325.5C327 329.1 324.1 332 320.5 332Z" fill="#2F4858"/>
<path d="M337 354.5H304C300.4 354.5 297.5 351.6 297.5 348C297.5 344.4 300.4 341.5 304 341.5H337C340.6 341.5 343.5 344.4 343.5 348C343.5 351.6 340.6 354.5 337 354.5Z" fill="#2F4858"/>
<path d="M256.5 288C252.9 288 250 285.1 250 281.5V248.5C250 244.9 252.9 242 256.5 242C260.1 242 263 244.9 263 248.5V281.5C263 285.1 260.1 288 256.5 288Z" fill="black"/>
<path d="M273 310.5H240C236.4 310.5 233.5 307.6 233.5 304C233.5 300.4 236.4 297.5 240 297.5H273C276.6 297.5 279.5 300.4 279.5 304C279.5 307.6 276.6 310.5 273 310.5Z" fill="black"/>
<path d="M256.5 288C252.9 288 250 285.1 250 281.5V248.5C250 244.9 252.9 242 256.5 242C260.1 242 263 244.9 263 248.5V281.5C263 285.1 260.1 288 256.5 288Z" fill="black"/>
<path d="M127.5 288C123.9 288 121 285.1 121 281.5V248.5C121 244.9 123.9 242 127.5 242C131.1 242 134 244.9 134 248.5V281.5C134 285.1 131.1 288 127.5 288Z" fill="black"/>
<path d="M273 211.5H240C236.4 211.5 233.5 208.6 233.5 205C233.5 201.4 236.4 198.5 240 198.5H273C276.6 198.5 279.5 201.4 279.5 205C279.5 208.6 276.6 211.5 273 211.5Z" fill="#2F4858"/>
<path d="M208 266.5H175C171.4 266.5 168.5 263.6 168.5 260C168.5 256.4 171.4 253.5 175 253.5H208C211.6 253.5 214.5 256.4 214.5 260C214.5 263.6 211.6 266.5 208 266.5Z" fill="#2F4858"/>
<path d="M256.5 376C252.9 376 250 373.1 250 369.5V336.5C250 332.9 252.9 330 256.5 330C260.1 330 263 332.9 263 336.5V369.5C263 373.1 260.1 376 256.5 376Z" fill="#2F4858"/>
<path d="M127.5 376C123.9 376 121 373.1 121 369.5V336.5C121 332.9 123.9 330 127.5 330C131.1 330 134 332.9 134 336.5V369.5C134 373.1 131.1 376 127.5 376Z" fill="black"/>
<path d="M256.5 288C252.9 288 250 285.1 250 281.5V248.5C250 244.9 252.9 242 256.5 242C260.1 242 263 244.9 263 248.5V281.5C263 285.1 260.1 288 256.5 288Z" fill="#2F4858"/>
<path d="M273 310.5H240C236.4 310.5 233.5 307.6 233.5 304C233.5 300.4 236.4 297.5 240 297.5H273C276.6 297.5 279.5 300.4 279.5 304C279.5 307.6 276.6 310.5 273 310.5Z" fill="#2F4858"/>
<path d="M191.5 332C187.9 332 185 329.1 185 325.5V292.5C185 288.9 187.9 286 191.5 286C195.1 286 198 288.9 198 292.5V325.5C198 329.1 195.1 332 191.5 332Z" fill="#2F4858"/>
<path d="M208 354.5H175C171.4 354.5 168.5 351.6 168.5 348C168.5 344.4 171.4 341.5 175 341.5H208C211.6 341.5 214.5 344.4 214.5 348C214.5 351.6 211.6 354.5 208 354.5Z" fill="#2F4858"/>
<path d="M127.5 288C123.9 288 121 285.1 121 281.5V248.5C121 244.9 123.9 242 127.5 242C131.1 242 134 244.9 134 248.5V281.5C134 285.1 131.1 288 127.5 288Z" fill="black"/>
<path d="M144 310.5H111C107.4 310.5 104.5 307.6 104.5 304C104.5 300.4 107.4 297.5 111 297.5H144C147.6 297.5 150.5 300.4 150.5 304C150.5 307.6 147.6 310.5 144 310.5Z" fill="black"/>
<path d="M127.5 288C123.9 288 121 285.1 121 281.5V248.5C121 244.9 123.9 242 127.5 242C131.1 242 134 244.9 134 248.5V281.5C134 285.1 131.1 288 127.5 288Z" fill="black"/>
<path d="M144 211.5H111C107.4 211.5 104.5 208.6 104.5 205C104.5 201.4 107.4 198.5 111 198.5H144C147.6 198.5 150.5 201.4 150.5 205C150.5 208.6 147.6 211.5 144 211.5Z" fill="#2F4858"/>
<path d="M80 266.5H47C43.4 266.5 40.5 263.6 40.5 260C40.5 256.4 43.4 253.5 47 253.5H80C83.6 253.5 86.5 256.4 86.5 260C86.5 263.6 83.6 266.5 80 266.5Z" fill="#2F4858"/>
<path d="M127.5 376C123.9 376 121 373.1 121 369.5V336.5C121 332.9 123.9 330 127.5 330C131.1 330 134 332.9 134 336.5V369.5C134 373.1 131.1 376 127.5 376Z" fill="#2F4858"/>
<path d="M127.5 288C123.9 288 121 285.1 121 281.5V248.5C121 244.9 123.9 242 127.5 242C131.1 242 134 244.9 134 248.5V281.5C134 285.1 131.1 288 127.5 288Z" fill="#2F4858"/>
<path d="M144 310.5H111C107.4 310.5 104.5 307.6 104.5 304C104.5 300.4 107.4 297.5 111 297.5H144C147.6 297.5 150.5 300.4 150.5 304C150.5 307.6 147.6 310.5 144 310.5Z" fill="#2F4858"/>
<path d="M63.5 332C59.9 332 57 329.1 57 325.5V292.5C57 288.9 59.9 286 63.5 286C67.1 286 70 288.9 70 292.5V325.5C70 329.1 67.1 332 63.5 332Z" fill="#2F4858"/>
<path d="M80 354.5H47C43.4 354.5 40.5 351.6 40.5 348C40.5 344.4 43.4 341.5 47 341.5H80C83.6 341.5 86.5 344.4 86.5 348C86.5 351.6 83.6 354.5 80 354.5Z" fill="#2F4858"/>
<path d="M401.6 199.5C400 199.5 398.6 199 397.6 197.9C396.5 196.8 396 195.5 396 193.9C396 192.3 396.5 190.9 397.6 189.9C398.7 188.8 400 188.3 401.6 188.3H464.4C466 188.3 467.4 188.8 468.4 189.9C469.5 191 470 192.3 470 193.9C470 195.5 469.5 196.9 468.4 197.9C467.3 199 466 199.5 464.4 199.5H401.6ZM433.1 279.8C431.4 279.8 429.9 279.2 428.8 278C427.6 276.8 427 275.4 427 273.7V188.2H439.2V273.7C439.2 275.4 438.6 276.9 437.4 278C436.3 279.3 434.8 279.8 433.1 279.8Z" fill="#2F4858"/>
<path d="M494.9 280.3C488.4 280.3 482.6 278.9 477.6 276.1C472.6 273.3 468.6 269.5 465.7 264.6C462.8 259.7 461.4 254.1 461.4 247.8C461.4 241.4 462.7 235.7 465.4 230.8C468.1 225.9 471.8 222.1 476.6 219.3C481.4 216.5 486.8 215.1 493 215.1C499.1 215.1 504.3 216.4 508.7 219.1C513.1 221.8 516.4 225.5 518.7 230.2C521 234.9 522.2 240.4 522.2 246.6C522.2 248.1 521.7 249.3 520.7 250.3C519.7 251.3 518.4 251.8 516.8 251.8H469.5V242.4H516.4L511.6 245.7C511.5 241.8 510.7 238.3 509.3 235.2C507.8 232.1 505.7 229.7 503 227.9C500.3 226.1 496.9 225.2 493 225.2C488.5 225.2 484.7 226.2 481.6 228.1C478.4 230.1 476 232.7 474.4 236.1C472.8 239.5 471.9 243.4 471.9 247.7C471.9 252 472.9 255.8 474.8 259.2C476.8 262.6 479.5 265.2 482.9 267.2C486.3 269.2 490.3 270.1 494.8 270.1C497.2 270.1 499.7 269.7 502.3 268.8C504.8 267.9 506.9 266.9 508.5 265.7C509.7 264.8 510.9 264.4 512.3 264.4C513.7 264.4 514.9 264.8 515.9 265.6C517.2 266.8 517.9 268.1 518 269.5C518.1 270.9 517.5 272.1 516.1 273.1C513.4 275.2 510.1 276.9 506.2 278.3C502.3 279.6 498.5 280.3 494.9 280.3Z" fill="#2F4858"/>
<path d="M520 307.3C518.3 307.3 516.9 306.7 515.8 305.6C514.7 304.5 514.2 303 514.2 301.3C514.2 299.5 514.7 298.1 515.8 297C516.9 295.9 518.3 295.4 520 295.4C523.1 295.4 525.9 294.7 528.2 293.3C530.5 291.9 532.4 290.1 533.8 287.7C535.2 285.4 535.9 282.7 535.9 279.6V221.6C535.9 219.8 536.5 218.4 537.6 217.3C538.7 216.2 540.2 215.7 541.9 215.7C543.7 215.7 545.1 216.2 546.2 217.3C547.3 218.4 547.8 219.8 547.8 221.6V279.6C547.8 285 546.6 289.8 544.2 293.9C541.8 298 538.5 301.3 534.4 303.7C530.3 306.1 525.5 307.3 520 307.3ZM541.9 205.2C539.8 205.2 538 204.4 536.4 202.9C534.9 201.4 534.1 199.6 534.1 197.4C534.1 195.3 534.9 193.5 536.4 191.9C537.9 190.4 539.7 189.6 541.9 189.6C544 189.6 545.8 190.4 547.4 191.9C548.9 193.4 549.7 195.2 549.7 197.4C549.7 199.5 548.9 201.3 547.4 202.9C545.8 204.4 544 205.2 541.9 205.2Z" fill="#2F4858"/>
<path d="M577.3 205.2C575.2 205.2 573.4 204.4 571.8 202.9C570.3 201.4 569.5 199.6 569.5 197.4C569.5 195.3 570.3 193.5 571.8 191.9C573.3 190.4 575.1 189.6 577.3 189.6C579.5 189.6 581.2 190.4 582.8 191.9C584.3 193.4 585.1 195.2 585.1 197.4C585.1 199.5 584.3 201.3 582.8 202.9C581.2 204.4 579.4 205.2 577.3 205.2ZM577.3 279.8C575.6 279.8 574.1 279.2 573 278.1C571.9 277 571.3 275.5 571.3 273.8V221.6C571.3 219.8 571.9 218.4 573 217.3C574.1 216.2 575.6 215.7 577.3 215.7C579.1 215.7 580.5 216.2 581.6 217.3C582.7 218.4 583.2 219.8 583.2 221.6V273.8C583.2 275.5 582.7 276.9 581.6 278.1C580.6 279.3 579.1 279.8 577.3 279.8Z" fill="#2F4858"/>
<path d="M635.7 280.3C629.2 280.3 623.4 278.9 618.4 276.1C613.4 273.3 609.4 269.5 606.5 264.6C603.6 259.7 602.2 254.1 602.2 247.8C602.2 241.4 603.5 235.7 606.2 230.8C608.9 225.9 612.6 222.1 617.4 219.3C622.2 216.5 627.6 215.1 633.8 215.1C639.9 215.1 645.1 216.4 649.5 219.1C653.9 221.8 657.2 225.5 659.5 230.2C661.8 234.9 663 240.4 663 246.6C663 248.1 662.5 249.3 661.5 250.3C660.5 251.3 659.2 251.8 657.6 251.8H610.3V242.4H657.2L652.4 245.7C652.3 241.8 651.5 238.3 650.1 235.2C648.6 232.1 646.5 229.7 643.8 227.9C641.1 226.1 637.7 225.2 633.8 225.2C629.3 225.2 625.5 226.2 622.4 228.1C619.2 230.1 616.8 232.7 615.2 236.1C613.6 239.5 612.7 243.4 612.7 247.7C612.7 252 613.7 255.8 615.6 259.2C617.6 262.6 620.3 265.2 623.7 267.2C627.1 269.2 631.1 270.1 635.6 270.1C638 270.1 640.5 269.7 643.1 268.8C645.6 267.9 647.7 266.9 649.3 265.7C650.5 264.8 651.7 264.4 653.1 264.4C654.5 264.4 655.7 264.8 656.7 265.6C658 266.8 658.7 268.1 658.8 269.5C658.9 270.9 658.3 272.1 656.9 273.1C654.2 275.2 650.9 276.9 647 278.3C643.1 279.6 639.3 280.3 635.7 280.3Z" fill="#2F4858"/>
<path d="M684.4 280C682.7 280 681.2 279.4 680.1 278.3C679 277.2 678.4 275.7 678.4 274V221.7C678.4 219.9 679 218.5 680.1 217.4C681.2 216.3 682.7 215.8 684.4 215.8C686.2 215.8 687.6 216.3 688.7 217.4C689.8 218.5 690.3 219.9 690.3 221.7V274C690.3 275.7 689.8 277.2 688.7 278.3C687.7 279.4 686.2 280 684.4 280ZM732.7 280C731 280 729.5 279.4 728.4 278.3C727.3 277.2 726.7 275.7 726.7 274V245.1C726.7 240.6 725.9 237 724.2 234.2C722.6 231.4 720.3 229.3 717.6 227.9C714.8 226.5 711.6 225.8 708 225.8C704.7 225.8 701.7 226.5 699.1 227.8C696.4 229.1 694.3 230.9 692.8 233.1C691.2 235.3 690.5 237.9 690.5 240.8H683C683 235.9 684.2 231.5 686.6 227.6C689 223.7 692.3 220.7 696.4 218.4C700.5 216.1 705.2 215 710.4 215C715.8 215 720.6 216.2 724.9 218.5C729.2 220.8 732.5 224.2 735 228.7C737.5 233.2 738.7 238.6 738.7 245.1V274C738.7 275.7 738.1 277.2 737 278.3C735.8 279.4 734.4 280 732.7 280Z" fill="#2F4858"/>
<path d="M787.6 280.3C781.5 280.3 776 278.9 771.1 276C766.2 273.1 762.3 269.3 759.5 264.3C756.6 259.4 755.2 253.8 755.2 247.6C755.2 241.4 756.5 235.9 759.1 231C761.7 226.1 765.3 222.2 769.8 219.4C774.3 216.5 779.5 215.1 785.2 215.1C789.8 215.1 794.1 216.1 798 218C801.9 219.9 805.2 222.5 807.9 225.8V194.1C807.9 192.3 808.5 190.9 809.6 189.8C810.7 188.7 812.2 188.2 813.9 188.2C815.7 188.2 817.1 188.7 818.2 189.8C819.3 190.9 819.8 192.3 819.8 194.1V247.6C819.8 253.8 818.4 259.3 815.5 264.3C812.6 269.2 808.8 273.1 803.9 276C799.2 278.9 793.7 280.3 787.6 280.3ZM787.6 269.7C791.6 269.7 795.1 268.7 798.3 266.8C801.4 264.9 803.9 262.2 805.7 258.9C807.5 255.5 808.4 251.8 808.4 247.6C808.4 243.4 807.5 239.6 805.7 236.3C803.9 233 801.4 230.4 798.3 228.5C795.2 226.6 791.6 225.6 787.6 225.6C783.7 225.6 780.1 226.6 777 228.5C773.8 230.4 771.3 233 769.5 236.3C767.7 239.6 766.7 243.3 766.7 247.6C766.7 251.7 767.6 255.5 769.5 258.9C771.3 262.3 773.8 264.9 777 266.8C780.1 268.8 783.7 269.7 787.6 269.7Z" fill="#2F4858"/>
<path d="M870.1 280.3C863.8 280.3 858.2 278.9 853.3 276.1C848.4 273.3 844.6 269.5 841.9 264.6C839.1 259.7 837.7 254.1 837.7 247.8C837.7 241.4 839.1 235.7 841.9 230.8C844.7 225.9 848.5 222.1 853.3 219.3C858.1 216.5 863.7 215.1 870.1 215.1C876.4 215.1 881.9 216.5 886.8 219.3C891.7 222.1 895.5 225.9 898.2 230.8C901 235.7 902.4 241.3 902.4 247.8C902.4 254.1 901 259.8 898.3 264.6C895.6 269.5 891.8 273.3 886.9 276.1C882 278.9 876.4 280.3 870.1 280.3ZM870.1 269.7C874.2 269.7 877.8 268.8 880.9 266.9C884 265 886.5 262.4 888.2 259.2C890 255.9 890.8 252.1 890.8 247.8C890.8 243.5 889.9 239.7 888.2 236.4C886.4 233.1 884 230.5 880.9 228.6C877.8 226.7 874.2 225.8 870.1 225.8C866 225.8 862.4 226.7 859.3 228.6C856.2 230.5 853.7 233.1 851.9 236.4C850.1 239.7 849.2 243.5 849.2 247.8C849.2 252.1 850.1 255.9 851.9 259.2C853.7 262.5 856.2 265.1 859.3 266.9C862.4 268.8 866 269.7 870.1 269.7Z" fill="#2F4858"/>
<path d="M428.2 384.5C422.7 384.5 417.7 383.7 413 382C408.3 380.3 404.7 378.2 402.1 375.6C400.9 374.3 400.4 372.9 400.6 371.3C400.8 369.7 401.6 368.4 402.9 367.4C404.5 366.1 406 365.6 407.5 365.8C409 366 410.3 366.7 411.4 367.9C412.7 369.4 414.9 370.8 417.8 372.1C420.7 373.4 424 374 427.6 374C432.1 374 435.6 373.3 438 371.8C440.4 370.3 441.6 368.4 441.7 366.1C441.8 363.8 440.7 361.7 438.4 360C436.1 358.3 431.9 356.9 425.8 355.8C417.9 354.2 412.2 351.9 408.6 348.8C405 345.7 403.3 341.8 403.3 337.3C403.3 333.3 404.5 330 406.8 327.4C409.1 324.8 412.2 322.8 415.8 321.5C419.5 320.2 423.3 319.6 427.3 319.6C432.5 319.6 437 320.4 441 322.1C445 323.7 448.2 326 450.5 328.9C451.6 330.2 452.1 331.5 452 332.8C451.9 334.2 451.3 335.3 450 336.3C448.7 337.2 447.3 337.4 445.5 337.1C443.8 336.8 442.3 336.1 441.2 335C439.2 333.1 437.1 331.8 434.9 331.1C432.6 330.4 430 330 427 330C423.6 330 420.6 330.6 418.3 331.8C415.9 333 414.7 334.7 414.7 337C414.7 338.4 415.1 339.7 415.8 340.8C416.5 341.9 418 343 420.2 343.9C422.4 344.8 425.6 345.7 429.8 346.5C435.7 347.7 440.3 349.2 443.7 351C447.1 352.8 449.5 354.9 451 357.3C452.5 359.7 453.2 362.4 453.2 365.6C453.2 369.2 452.2 372.4 450.3 375.3C448.4 378.2 445.6 380.5 441.9 382.2C438.3 383.6 433.7 384.5 428.2 384.5Z" fill="#FF958C"/>
<path d="M497.6 384.5C491.3 384.5 485.7 383.1 480.8 380.3C475.9 377.5 472.1 373.7 469.4 368.8C466.6 363.9 465.2 358.3 465.2 352C465.2 345.6 466.6 339.9 469.4 335C472.2 330.1 476 326.3 480.8 323.5C485.6 320.7 491.2 319.3 497.6 319.3C503.9 319.3 509.4 320.7 514.3 323.5C519.2 326.3 523 330.1 525.7 335C528.5 339.9 529.9 345.5 529.9 352C529.9 358.3 528.5 364 525.8 368.8C523.1 373.7 519.3 377.5 514.4 380.3C509.6 383.1 504 384.5 497.6 384.5ZM497.6 373.9C501.7 373.9 505.3 373 508.4 371.1C511.5 369.2 514 366.6 515.7 363.4C517.5 360.1 518.3 356.3 518.3 352C518.3 347.7 517.4 343.9 515.7 340.6C513.9 337.3 511.5 334.7 508.4 332.8C505.3 330.9 501.7 330 497.6 330C493.5 330 489.9 330.9 486.8 332.8C483.7 334.7 481.2 337.3 479.4 340.6C477.6 343.9 476.7 347.7 476.7 352C476.7 356.3 477.6 360.1 479.4 363.4C481.2 366.7 483.7 369.3 486.8 371.1C490 373 493.6 373.9 497.6 373.9Z" fill="#FF958C"/>
<path d="M553.6 384.2C551.7 384.2 550.3 383.7 549.3 382.7C548.3 381.7 547.8 380.3 547.8 378.3V325.8C547.8 323.9 548.3 322.5 549.3 321.5C550.3 320.5 551.8 320 553.6 320C555.6 320 557 320.5 558 321.5C559 322.5 559.5 323.9 559.5 325.9V378.4C559.5 380.3 559 381.7 558 382.7C557 383.7 555.6 384.2 553.6 384.2ZM553.5 344.1C553.5 339.4 554.7 335.2 557 331.5C559.3 327.8 562.4 324.8 566.3 322.6C570.2 320.4 574.5 319.3 579.2 319.3C583.9 319.3 587.4 320.1 589.7 321.6C592 323.1 592.9 324.9 592.3 327.1C592.1 328.2 591.6 329 591 329.6C590.3 330.2 589.6 330.6 588.7 330.7C587.8 330.9 586.9 330.8 585.9 330.6C580.9 329.6 576.4 329.5 572.4 330.4C568.4 331.3 565.3 332.9 563 335.2C560.7 337.5 559.5 340.5 559.5 344.1H553.5Z" fill="#FF958C"/>
<path d="M610.8 411.4C609.1 411.4 607.6 410.8 606.5 409.7C605.4 408.6 604.8 407.1 604.8 405.4V352C604.9 345.8 606.3 340.3 609.1 335.3C611.9 330.4 615.7 326.5 620.6 323.6C625.4 320.7 630.9 319.3 637 319.3C643.2 319.3 648.7 320.7 653.5 323.6C658.3 326.5 662.2 330.3 665.1 335.3C668 340.2 669.4 345.8 669.4 352C669.4 358.2 668.1 363.7 665.5 368.6C662.9 373.5 659.3 377.4 654.8 380.2C650.3 383.1 645.1 384.5 639.4 384.5C634.8 384.5 630.5 383.5 626.7 381.6C622.8 379.7 619.5 377.1 616.8 373.8V405.5C616.8 407.2 616.3 408.6 615.2 409.8C614 410.9 612.5 411.4 610.8 411.4ZM637 373.9C641 373.9 644.5 372.9 647.7 371C650.8 369.1 653.3 366.5 655.2 363.1C657 359.8 658 356 658 351.9C658 347.7 657.1 343.9 655.2 340.6C653.4 337.3 650.9 334.7 647.7 332.7C644.6 330.8 641 329.8 637 329.8C633.1 329.8 629.5 330.8 626.4 332.7C623.2 334.6 620.7 337.2 618.9 340.6C617.1 343.9 616.2 347.7 616.2 351.9C616.2 356 617.1 359.8 618.9 363.1C620.7 366.4 623.2 369 626.4 371C629.6 372.9 633.1 373.9 637 373.9Z" fill="#FF958C"/>
<path d="M693.1 384.2C691.2 384.2 689.8 383.7 688.8 382.7C687.8 381.7 687.3 380.3 687.3 378.3V325.8C687.3 323.9 687.8 322.5 688.8 321.5C689.8 320.5 691.3 320 693.1 320C695.1 320 696.5 320.5 697.5 321.5C698.5 322.5 699 323.9 699 325.9V378.4C699 380.3 698.5 381.7 697.5 382.7C696.6 383.7 695.1 384.2 693.1 384.2ZM693 344.1C693 339.4 694.2 335.2 696.5 331.5C698.8 327.8 701.9 324.8 705.8 322.6C709.7 320.4 714 319.3 718.7 319.3C723.4 319.3 726.9 320.1 729.2 321.6C731.5 323.1 732.4 324.9 731.8 327.1C731.6 328.2 731.1 329 730.5 329.6C729.8 330.2 729.1 330.6 728.2 330.7C727.3 330.9 726.4 330.8 725.4 330.6C720.4 329.6 715.9 329.5 711.9 330.4C707.9 331.3 704.8 332.9 702.5 335.2C700.2 337.5 699 340.5 699 344.1H693Z" fill="#FF958C"/>
<path d="M769.8 384.5C763.3 384.5 757.5 383.1 752.5 380.3C747.5 377.5 743.5 373.7 740.6 368.8C737.7 363.9 736.3 358.3 736.3 352C736.3 345.6 737.6 339.9 740.3 335C743 330.1 746.7 326.3 751.5 323.5C756.3 320.7 761.7 319.3 767.9 319.3C774 319.3 779.2 320.6 783.6 323.3C788 326 791.3 329.7 793.6 334.4C795.9 339.1 797.1 344.6 797.1 350.8C797.1 352.3 796.6 353.5 795.6 354.5C794.6 355.5 793.3 356 791.7 356H744.4V346.6H791.3L786.5 349.9C786.4 346 785.6 342.5 784.2 339.4C782.7 336.3 780.6 333.9 777.9 332.1C775.2 330.3 771.8 329.4 767.9 329.4C763.4 329.4 759.6 330.4 756.5 332.3C753.3 334.3 750.9 336.9 749.3 340.3C747.7 343.7 746.8 347.6 746.8 351.9C746.8 356.2 747.8 360 749.7 363.4C751.7 366.8 754.4 369.4 757.8 371.4C761.2 373.4 765.2 374.3 769.7 374.3C772.1 374.3 774.6 373.9 777.2 373C779.7 372.1 781.8 371.1 783.4 369.9C784.6 369 785.8 368.6 787.2 368.6C788.6 368.6 789.8 369 790.8 369.8C792.1 371 792.8 372.3 792.9 373.7C793 375.1 792.4 376.3 791 377.3C788.3 379.4 785 381.1 781.1 382.5C777.1 383.8 773.4 384.5 769.8 384.5Z" fill="#FF958C"/>
<path d="M835.8 384.5C830.3 384.5 825.3 383.7 820.6 382C815.9 380.3 812.3 378.2 809.7 375.6C808.5 374.3 808 372.9 808.2 371.3C808.4 369.7 809.2 368.4 810.5 367.4C812.1 366.1 813.6 365.6 815.1 365.8C816.6 366 817.9 366.7 819 367.9C820.3 369.4 822.5 370.8 825.4 372.1C828.3 373.4 831.6 374 835.2 374C839.7 374 843.2 373.3 845.6 371.8C848 370.3 849.2 368.4 849.3 366.1C849.4 363.8 848.3 361.7 846 360C843.7 358.3 839.5 356.9 833.4 355.8C825.5 354.2 819.8 351.9 816.2 348.8C812.6 345.7 810.9 341.8 810.9 337.3C810.9 333.3 812.1 330 814.4 327.4C816.7 324.8 819.8 322.8 823.4 321.5C827.1 320.2 830.9 319.6 834.9 319.6C840.1 319.6 844.6 320.4 848.6 322.1C852.6 323.7 855.8 326 858.1 328.9C859.2 330.2 859.7 331.5 859.6 332.8C859.5 334.2 858.9 335.3 857.6 336.3C856.3 337.2 854.9 337.4 853.1 337.1C851.4 336.8 849.9 336.1 848.8 335C846.8 333.1 844.7 331.8 842.5 331.1C840.2 330.4 837.6 330 834.6 330C831.2 330 828.2 330.6 825.9 331.8C823.5 333 822.3 334.7 822.3 337C822.3 338.4 822.7 339.7 823.4 340.8C824.1 341.9 825.6 343 827.8 343.9C830 344.8 833.2 345.7 837.4 346.5C843.3 347.7 847.9 349.2 851.3 351C854.7 352.8 857.1 354.9 858.6 357.3C860.1 359.7 860.8 362.4 860.8 365.6C860.8 369.2 859.8 372.4 857.9 375.3C856 378.2 853.2 380.5 849.5 382.2C846 383.6 841.4 384.5 835.8 384.5Z" fill="#FF958C"/>
<path d="M903 384.5C897.3 384.5 892.2 383.1 887.6 380.2C883.1 377.3 879.5 373.5 876.9 368.6C874.3 363.7 873 358.2 873 352C873 345.8 874.4 340.3 877.3 335.3C880.2 330.4 884 326.5 888.9 323.6C893.8 320.7 899.3 319.3 905.4 319.3C911.5 319.3 917 320.7 921.8 323.6C926.6 326.5 930.5 330.3 933.4 335.3C936.3 340.2 937.7 345.8 937.7 352H933C933 358.2 931.7 363.7 929.1 368.6C926.5 373.5 922.9 377.4 918.4 380.2C913.8 383 908.7 384.5 903 384.5ZM905.3 373.9C909.3 373.9 912.8 372.9 916 371C919.1 369.1 921.6 366.5 923.4 363.1C925.2 359.8 926.1 356 926.1 351.9C926.1 347.7 925.2 343.9 923.4 340.6C921.6 337.3 919.1 334.7 916 332.7C912.9 330.8 909.3 329.8 905.3 329.8C901.4 329.8 897.8 330.8 894.7 332.7C891.5 334.6 889 337.2 887.2 340.6C885.4 343.9 884.4 347.7 884.4 351.9C884.4 356 885.3 359.8 887.2 363.1C889 366.4 891.5 369 894.7 371C897.8 372.9 901.4 373.9 905.3 373.9ZM931.6 384.1C929.9 384.1 928.5 383.5 927.3 382.4C926.2 381.3 925.6 379.8 925.6 378.1V360.1L927.8 347.7L937.5 351.9V378.1C937.5 379.8 936.9 381.2 935.8 382.4C934.7 383.5 933.3 384.1 931.6 384.1Z" fill="#FF958C"/>
<path d="M978.8 384.5C973.3 384.5 968.3 383.7 963.6 382C958.9 380.3 955.3 378.2 952.7 375.6C951.5 374.3 951 372.9 951.2 371.3C951.4 369.7 952.2 368.4 953.5 367.4C955.1 366.1 956.6 365.6 958.1 365.8C959.6 366 960.9 366.7 962 367.9C963.3 369.4 965.5 370.8 968.4 372.1C971.3 373.4 974.6 374 978.2 374C982.7 374 986.2 373.3 988.6 371.8C991 370.3 992.2 368.4 992.3 366.1C992.4 363.8 991.3 361.7 989 360C986.7 358.3 982.5 356.9 976.4 355.8C968.5 354.2 962.8 351.9 959.2 348.8C955.6 345.7 953.9 341.8 953.9 337.3C953.9 333.3 955.1 330 957.4 327.4C959.7 324.8 962.8 322.8 966.4 321.5C970.1 320.2 973.9 319.6 977.9 319.6C983.1 319.6 987.6 320.4 991.6 322.1C995.6 323.7 998.8 326 1001.1 328.9C1002.2 330.2 1002.7 331.5 1002.6 332.8C1002.5 334.2 1001.9 335.3 1000.6 336.3C999.3 337.2 997.9 337.4 996.1 337.1C994.4 336.8 992.9 336.1 991.8 335C989.8 333.1 987.7 331.8 985.5 331.1C983.2 330.4 980.6 330 977.6 330C974.2 330 971.2 330.6 968.9 331.8C966.5 333 965.3 334.7 965.3 337C965.3 338.4 965.7 339.7 966.4 340.8C967.1 341.9 968.6 343 970.8 343.9C973 344.8 976.2 345.7 980.4 346.5C986.3 347.7 990.9 349.2 994.3 351C997.7 352.8 1000.1 354.9 1001.6 357.3C1003.1 359.7 1003.8 362.4 1003.8 365.6C1003.8 369.2 1002.8 372.4 1000.9 375.3C999 378.2 996.2 380.5 992.5 382.2C988.9 383.6 984.3 384.5 978.8 384.5Z" fill="#FF958C"/>
</svg>
