<svg width="494" height="203" viewBox="0 0 494 203" fill="none" xmlns="http://www.w3.org/2000/svg">
<path d="M184.97 83.7774C159.389 83.7774 133.808 83.7774 108.227 83.7774C106.21 83.7774 104.931 84.5645 103.996 86.3847C101.29 91.8944 98.4864 97.355 95.6824 102.815C95.3872 103.357 95.0921 103.947 94.6001 104.734C91.4025 98.4864 88.3525 92.6323 85.45 86.6798C84.4169 84.5645 82.9903 83.7774 80.6782 83.7774C55.3433 83.8266 29.91 83.8266 4.57504 83.7774C3.09922 83.7774 2.06615 84.0726 1.03307 84.9089C0.344358 85.45 0 86.2863 0 87.1226V87.2702C0 87.8605 0.196776 88.4016 0.49194 88.8444C2.21373 91.5009 3.34519 94.1573 4.77182 96.8138C5.11618 97.4533 5.46054 98.1421 5.85409 98.7816C6.83797 100.405 8.60895 100.946 10.134 100.159C11.5606 99.4211 12.2001 97.6993 11.5114 96.0267C10.8719 94.5017 10.0356 93.1735 9.29767 91.6484C9.10089 91.2057 8.95331 90.7138 8.65815 90.2218H10.8227C33.2552 90.2218 55.6876 90.1234 78.1201 90.0742C79.5959 90.0742 80.383 90.4186 81.0718 91.796C83.4823 96.7646 86.0404 101.586 88.5492 106.505C88.7952 107.046 89.0412 107.391 89.4839 108.374H87.1226C63.9522 108.374 40.7818 108.424 17.6115 108.424C13.6759 108.424 12.7904 109.358 12.7904 113.195V177.098C12.7904 182.018 13.5776 184.527 16.2832 186.642C18.3986 188.266 21.055 189.102 23.7115 189.102H165.636C168.342 189.102 170.949 188.315 173.114 186.642C175.819 184.576 176.557 182.116 176.557 177.148C176.557 156.289 176.557 135.382 176.607 114.573C176.607 113.245 177 111.769 177.59 110.539C181.083 103.455 184.724 96.3711 188.315 89.3363C190.037 85.9911 188.708 83.8266 184.97 83.7774ZM174.048 103.75C172.474 107.735 170.162 108.768 165.931 108.719C148.763 108.424 131.643 108.571 114.474 108.62C111.277 108.62 109.801 109.604 109.801 111.769C109.801 113.687 110.933 114.671 113.392 114.868C113.737 114.868 114.081 114.868 114.425 114.868H141.63C157.421 114.868 170.211 127.658 170.211 143.45V178.033C170.211 181.674 169.326 182.756 165.685 182.756H23.6623C20.022 182.756 19.1365 181.723 19.1365 178.082C19.1365 157.814 19.1857 137.448 19.1857 117.131C19.1857 115.852 20.2187 114.868 21.4486 114.868H85.1057H92.1404C94.9445 114.868 97.5518 113.245 98.7816 110.736V110.687C101.979 104.242 105.275 97.8469 108.473 91.4517C108.916 90.5662 109.408 90.0742 110.539 90.0742C133.562 90.1234 156.535 90.1234 179.509 90.1234C179.804 90.1234 180.099 90.1726 180.739 90.2218C178.427 94.8461 175.869 99.1751 174.048 103.75Z" fill="#FBFEF9"/>
<path d="M87.3194 0C90.271 1.32824 89.3855 4.0831 89.6315 6.69039C90.7629 6.69039 91.8452 6.64119 92.9275 6.69039C94.9936 6.78878 96.2727 8.06782 96.2235 9.888C96.2235 11.7574 94.9444 12.8888 92.8291 12.9872C91.8452 13.0364 90.8613 12.9872 89.5331 12.9872C89.5331 14.1187 89.5823 15.201 89.5331 16.2832C89.4839 18.3986 88.3032 19.6284 86.4339 19.6776C84.5645 19.6776 83.3346 18.3986 83.2363 16.3816C83.1871 15.3485 83.2363 14.3155 83.2363 13.0364C82.0064 13.0364 80.9241 13.0856 79.8419 13.0364C77.8741 12.9872 76.5951 11.7574 76.5459 10.0356C76.4967 8.2154 77.8249 6.88716 79.7927 6.78878C80.8258 6.73958 81.8588 6.78878 83.0887 6.78878C83.3838 4.37827 82.4 1.52501 85.3516 0.0983881C86.0895 0 86.6798 0 87.3194 0Z" fill="#FF958C"/>
<path d="M121.116 67.5926C122.198 58.9836 125.494 51.0634 130.954 44.0778C135.972 37.6826 142.269 32.9108 149.796 29.664C152.059 28.6801 153.83 29.1721 154.617 30.9922C155.404 32.7632 154.617 34.3866 152.452 35.3705C138.334 41.7657 129.971 52.5392 127.462 67.8877C127.068 70.1999 125.691 71.4297 123.821 71.1837C122.1 70.987 121.017 69.5603 121.116 67.5926Z" fill="#FBFEF9"/>
<path d="M65.0837 65.9692C65.182 69.2652 64.0014 70.7902 62.0828 70.8394C60.2134 70.8886 58.9836 69.5111 58.836 67.1498C58.0981 56.1796 53.3755 47.3246 44.8157 40.4375C44.4222 40.1423 44.0286 39.8471 43.6351 39.552C42.1592 38.2237 41.9133 36.5511 42.9463 35.1245C44.0286 33.6979 45.898 33.4027 47.5214 34.6326C58.2949 42.7004 64.1982 53.4247 65.0837 65.9692Z" fill="#FBFEF9"/>
<path d="M152.108 10.1339C148.271 5.70648 147.877 4.47663 149.55 2.90242C150.73 1.77096 152.108 1.57418 153.436 2.50887C154.518 3.29598 155.453 4.27986 156.88 5.60809C157.568 4.7226 158.159 3.73872 158.946 3.00081C160.372 1.62338 162.143 1.62338 163.423 2.85323C164.702 4.08308 164.751 5.85406 163.472 7.32989C162.734 8.16618 161.799 8.80571 160.323 10.0848C161.455 10.8719 162.389 11.3146 163.078 11.9541C164.8 13.6267 164.849 15.3977 163.472 16.7751C162.094 18.1034 160.274 17.9558 158.601 16.2832C157.962 15.6437 157.421 14.8566 156.486 13.7743C155.502 14.955 154.863 15.988 153.977 16.7751C152.551 18.0542 150.73 17.9558 149.55 16.6768C148.369 15.3977 148.369 13.7251 149.648 12.3477C150.288 11.5606 151.173 10.921 152.108 10.1339Z" fill="#FF958C"/>
<path d="M12.692 13.3808C13.0856 10.6751 11.8065 6.83795 15.9388 6.83795C20.1695 6.83795 18.6937 10.7243 19.1856 13.2332C21.7437 13.7743 25.7285 12.2493 25.6301 16.6768C25.5317 20.8582 21.6945 19.2348 19.0873 19.8252C19.0873 20.8582 19.1365 21.9405 19.0873 23.0228C19.0381 24.9905 17.8574 26.2204 16.0864 26.2696C14.2662 26.3188 12.938 25.0397 12.8396 23.0228C12.7904 21.9405 12.8396 20.8582 12.8396 19.5792C11.5114 19.5792 10.4291 19.6284 9.34684 19.5792C7.47747 19.4808 6.29681 18.3002 6.19842 16.6276C6.10004 14.9058 7.37908 13.4791 9.19926 13.3316C10.3307 13.2824 11.4622 13.3808 12.692 13.3808Z" fill="#FF958C"/>
<path d="M170.162 60.1151C170.654 57.5078 169.178 53.4739 173.606 53.6707C177.492 53.8183 176.361 57.4586 176.656 60.2135C177.64 60.2135 178.673 60.1643 179.657 60.2135C181.821 60.2627 183.199 61.5417 183.199 63.3619C183.199 65.2313 181.821 66.412 179.607 66.4611C178.624 66.4611 177.689 66.4611 176.705 66.4611C176.164 69.1176 177.689 73.1023 173.212 73.0039C169.031 72.9056 170.654 69.0684 170.064 66.4611C168.932 66.4611 167.801 66.5103 166.669 66.4611C164.8 66.3628 163.619 65.1821 163.57 63.4603C163.521 61.7385 164.652 60.4595 166.423 60.2135C167.014 60.1151 167.653 60.1643 168.244 60.1643C168.883 60.1643 169.473 60.1151 170.162 60.1151Z" fill="#FF958C"/>
<path d="M25.0398 63.3619C23.318 60.853 19.53 59.1804 22.4817 56.1304C25.4825 53.0803 27.2043 56.8683 29.6148 58.5409C30.3035 57.7538 30.9431 56.8683 31.7302 56.1304C33.1568 54.7529 34.8786 54.7529 36.2068 55.9828C37.535 57.2126 37.535 59.1312 36.1576 60.5578C35.4689 61.3449 34.6326 61.9845 33.4519 63.0667C34.4358 63.903 35.3705 64.5425 36.1084 65.2805C37.4859 66.7563 37.5351 68.6257 36.3052 69.9047C35.0262 71.1837 33.206 71.1837 31.7302 69.7571C30.9922 69.0192 30.4019 68.1829 29.418 67.0022C28.4833 68.1337 27.8438 68.9208 27.1059 69.6587C25.5317 71.1837 23.6623 71.2329 22.3833 69.8555C21.1534 68.5765 21.2518 66.7071 22.6785 65.2805C23.3672 64.5425 24.2527 63.9522 25.0398 63.3619Z" fill="#FF958C"/>
<path d="M91.5009 48.6529C91.7468 43.1431 93.2226 38.027 95.9775 33.2059C97.1582 31.189 98.88 30.5495 100.553 31.4841C102.225 32.4188 102.619 34.239 101.438 36.3052C98.9292 40.831 97.7485 45.652 97.7977 50.7682C97.8469 53.1787 96.7154 54.5561 94.7969 54.6053C92.7799 54.6545 91.5992 53.3263 91.5009 50.8174C91.5009 50.1287 91.5009 49.3908 91.5009 48.6529Z" fill="#FBFEF9"/>
<path d="M116.295 17.7098C118.016 17.7098 119.443 19.0873 119.443 20.8583C119.443 22.7768 117.721 24.2526 115.458 24.351C113.737 24.4002 112.261 23.0228 112.212 21.301C112.113 19.3824 113.983 17.759 116.295 17.7098Z" fill="#FF958C"/>
<path d="M50.5223 19.6284C48.7513 19.5792 47.3739 18.1526 47.4722 16.4308C47.5214 14.8074 48.9481 13.43 50.5715 13.43C52.2933 13.43 53.7199 14.9058 53.7199 16.6276C53.7199 18.3002 52.2933 19.6776 50.5223 19.6284Z" fill="#FF958C"/>
<path d="M104.931 67.7402C104.882 69.4128 103.307 70.8886 101.635 70.7902C99.8638 70.741 98.5848 69.3144 98.6832 67.4942C98.7324 65.8216 100.11 64.5425 101.782 64.5425C103.504 64.5917 104.98 66.0676 104.931 67.7402Z" fill="#FF958C"/>
<path d="M69.5111 28.4342C69.4619 30.156 67.9861 31.4842 66.2151 31.435C64.4441 31.3858 63.1651 29.9592 63.2635 28.1882C63.3619 26.5156 64.7393 25.1874 66.4119 25.2366C68.0845 25.2366 69.5603 26.7616 69.5111 28.4342Z" fill="#FF958C"/>
<path d="M172.622 33.1076C174.393 33.1076 175.77 34.5834 175.721 36.256C175.672 37.8794 174.245 39.2569 172.622 39.3061C170.9 39.3552 169.473 37.9286 169.473 36.1576C169.473 34.4358 170.851 33.1076 172.622 33.1076Z" fill="#FF958C"/>
<path d="M165.784 131.102H149.55C147.779 131.102 146.352 129.675 146.352 127.904C146.352 126.133 147.779 124.707 149.55 124.707H165.784C167.555 124.707 168.981 126.133 168.981 127.904C168.981 129.675 167.555 131.102 165.784 131.102Z" fill="#FBFEF9"/>
<path d="M157.667 163.324C155.896 163.324 154.469 161.898 154.469 160.127V143.893C154.469 142.122 155.896 140.695 157.667 140.695C159.438 140.695 160.864 142.122 160.864 143.893V160.127C160.864 161.898 159.438 163.324 157.667 163.324Z" fill="#FBFEF9"/>
<path d="M165.784 174.393H149.55C147.779 174.393 146.352 172.966 146.352 171.195C146.352 169.424 147.779 167.998 149.55 167.998H165.784C167.555 167.998 168.982 169.424 168.982 171.195C168.982 172.966 167.555 174.393 165.784 174.393Z" fill="#FBFEF9"/>
<path d="M134.3 104.045H118.066C116.295 104.045 114.868 102.619 114.868 100.848C114.868 99.0768 116.295 97.6501 118.066 97.6501H134.3C136.071 97.6501 137.497 99.0768 137.497 100.848C137.497 102.619 136.071 104.045 134.3 104.045Z" fill="#FBFEF9"/>
<path d="M102.324 131.102H86.0896C84.3186 131.102 82.892 129.675 82.892 127.904C82.892 126.133 84.3186 124.707 86.0896 124.707H102.324C104.095 124.707 105.521 126.133 105.521 127.904C105.521 129.675 104.095 131.102 102.324 131.102Z" fill="#FBFEF9"/>
<path d="M126.183 184.97C124.412 184.97 122.985 183.543 122.985 181.772V165.538C122.985 163.767 124.412 162.34 126.183 162.34C127.954 162.34 129.38 163.767 129.38 165.538V181.772C129.38 183.543 127.954 184.97 126.183 184.97Z" fill="#FBFEF9"/>
<path d="M126.183 141.679C124.412 141.679 122.985 140.252 122.985 138.481V122.247C122.985 120.476 124.412 119.05 126.183 119.05C127.954 119.05 129.38 120.476 129.38 122.247V138.481C129.38 140.252 127.954 141.679 126.183 141.679Z" fill="#FBFEF9"/>
<path d="M134.3 152.747H118.066C116.295 152.747 114.868 151.321 114.868 149.55C114.868 147.779 116.295 146.352 118.066 146.352H134.3C136.071 146.352 137.497 147.779 137.497 149.55C137.497 151.321 136.071 152.747 134.3 152.747Z" fill="#FBFEF9"/>
<path d="M94.2066 163.324C92.4357 163.324 91.009 161.898 91.009 160.127V143.893C91.009 142.122 92.4357 140.695 94.2066 140.695C95.9776 140.695 97.4043 142.122 97.4043 143.893V160.127C97.4043 161.898 95.9776 163.324 94.2066 163.324Z" fill="#FBFEF9"/>
<path d="M102.324 174.393H86.0896C84.3186 174.393 82.892 172.966 82.892 171.195C82.892 169.424 84.3186 167.998 86.0896 167.998H102.324C104.095 167.998 105.521 169.424 105.521 171.195C105.521 172.966 104.095 174.393 102.324 174.393Z" fill="#FBFEF9"/>
<path d="M70.8394 104.045H54.6053C52.8343 104.045 51.4077 102.619 51.4077 100.848C51.4077 99.0768 52.8343 97.6501 54.6053 97.6501H70.8394C72.6103 97.6501 74.037 99.0768 74.037 100.848C74.037 102.619 72.6103 104.045 70.8394 104.045Z" fill="#FBFEF9"/>
<path d="M39.3552 131.102H23.1212C21.3502 131.102 19.9236 129.675 19.9236 127.904C19.9236 126.133 21.3502 124.707 23.1212 124.707H39.3552C41.1262 124.707 42.5528 126.133 42.5528 127.904C42.5528 129.675 41.1262 131.102 39.3552 131.102Z" fill="#FBFEF9"/>
<path d="M62.7224 184.97C60.9514 184.97 59.5248 183.543 59.5248 181.772V165.538C59.5248 163.767 60.9514 162.34 62.7224 162.34C64.4934 162.34 65.92 163.767 65.92 165.538V181.772C65.92 183.543 64.4934 184.97 62.7224 184.97Z" fill="#FBFEF9"/>
<path d="M62.7223 141.679C60.9513 141.679 59.5247 140.252 59.5247 138.481V122.247C59.5247 120.476 60.9513 119.05 62.7223 119.05C64.4933 119.05 65.9199 120.476 65.9199 122.247V138.481C65.9199 140.252 64.4933 141.679 62.7223 141.679Z" fill="#FBFEF9"/>
<path d="M70.8394 152.747H54.6053C52.8343 152.747 51.4077 151.321 51.4077 149.55C51.4077 147.779 52.8343 146.352 54.6053 146.352H70.8394C72.6103 146.352 74.037 147.779 74.037 149.55C74.037 151.321 72.6103 152.747 70.8394 152.747Z" fill="#FBFEF9"/>
<path d="M31.2383 163.324C29.4673 163.324 28.0406 161.898 28.0406 160.127V143.893C28.0406 142.122 29.4673 140.695 31.2383 140.695C33.0092 140.695 34.4359 142.122 34.4359 143.893V160.127C34.4359 161.898 33.0092 163.324 31.2383 163.324Z" fill="#FBFEF9"/>
<path d="M39.3552 174.393H23.1212C21.3502 174.393 19.9236 172.966 19.9236 171.195C19.9236 169.424 21.3502 167.998 23.1212 167.998H39.3552C41.1262 167.998 42.5528 169.424 42.5528 171.195C42.5528 172.966 41.1262 174.393 39.3552 174.393Z" fill="#FBFEF9"/>
<path d="M197.563 98.1421C196.776 98.1421 196.087 97.8961 195.595 97.3549C195.054 96.8138 194.808 96.1743 194.808 95.3872C194.808 94.6001 195.054 93.9114 195.595 93.4194C196.137 92.8783 196.776 92.6323 197.563 92.6323H228.457C229.244 92.6323 229.933 92.8783 230.425 93.4194C230.966 93.9606 231.212 94.6001 231.212 95.3872C231.212 96.1743 230.966 96.863 230.425 97.3549C229.884 97.8961 229.244 98.1421 228.457 98.1421H197.563ZM213.059 137.645C212.223 137.645 211.485 137.35 210.944 136.759C210.354 136.169 210.058 135.48 210.058 134.644V92.5831H216.06V134.644C216.06 135.48 215.765 136.218 215.175 136.759C214.634 137.399 213.896 137.645 213.059 137.645Z" fill="#FBFEF9"/>
<path d="M243.461 137.891C240.264 137.891 237.41 137.202 234.951 135.825C232.491 134.447 230.523 132.578 229.097 130.167C227.67 127.757 226.981 125.002 226.981 121.903C226.981 118.754 227.621 115.95 228.949 113.54C230.277 111.129 232.097 109.26 234.459 107.882C236.82 106.505 239.476 105.816 242.527 105.816C245.527 105.816 248.085 106.456 250.25 107.784C252.415 109.112 254.038 110.933 255.169 113.245C256.301 115.557 256.891 118.262 256.891 121.312C256.891 122.05 256.645 122.641 256.153 123.133C255.661 123.625 255.022 123.871 254.235 123.871H230.966V119.246H254.038L251.677 120.87C251.627 118.951 251.234 117.229 250.545 115.704C249.807 114.179 248.774 112.999 247.446 112.113C246.118 111.228 244.445 110.785 242.527 110.785C240.313 110.785 238.443 111.277 236.918 112.212C235.344 113.195 234.164 114.474 233.376 116.147C232.589 117.82 232.147 119.738 232.147 121.854C232.147 123.969 232.639 125.838 233.573 127.511C234.557 129.184 235.885 130.463 237.558 131.446C239.231 132.43 241.198 132.873 243.412 132.873C244.593 132.873 245.823 132.676 247.102 132.234C248.331 131.791 249.364 131.299 250.152 130.709C250.742 130.266 251.332 130.069 252.021 130.069C252.71 130.069 253.3 130.266 253.792 130.659C254.431 131.25 254.776 131.889 254.825 132.578C254.874 133.267 254.579 133.857 253.89 134.349C252.562 135.382 250.939 136.218 249.02 136.907C247.102 137.546 245.232 137.891 243.461 137.891Z" fill="#FBFEF9"/>
<path d="M255.809 151.173C254.973 151.173 254.284 150.878 253.743 150.337C253.202 149.796 252.956 149.058 252.956 148.222C252.956 147.336 253.202 146.647 253.743 146.106C254.284 145.565 254.973 145.319 255.809 145.319C257.334 145.319 258.711 144.975 259.843 144.286C260.974 143.597 261.909 142.712 262.598 141.531C263.286 140.4 263.631 139.071 263.631 137.546V109.014C263.631 108.128 263.926 107.44 264.467 106.899C265.008 106.357 265.746 106.111 266.582 106.111C267.468 106.111 268.157 106.357 268.698 106.899C269.239 107.44 269.485 108.128 269.485 109.014V137.546C269.485 140.203 268.895 142.564 267.714 144.581C266.533 146.598 264.91 148.222 262.893 149.402C260.876 150.583 258.515 151.173 255.809 151.173ZM266.582 100.946C265.549 100.946 264.664 100.553 263.877 99.8146C263.139 99.0767 262.745 98.1912 262.745 97.109C262.745 96.0759 263.139 95.1904 263.877 94.4033C264.615 93.6654 265.5 93.2719 266.582 93.2719C267.616 93.2719 268.501 93.6654 269.288 94.4033C270.026 95.1412 270.42 96.0267 270.42 97.109C270.42 98.1421 270.026 99.0275 269.288 99.8146C268.501 100.553 267.616 100.946 266.582 100.946Z" fill="#FBFEF9"/>
<path d="M283.997 100.946C282.964 100.946 282.079 100.553 281.291 99.8147C280.554 99.0767 280.16 98.1912 280.16 97.109C280.16 96.0759 280.554 95.1904 281.291 94.4033C282.029 93.6654 282.915 93.2719 283.997 93.2719C285.079 93.2719 285.916 93.6654 286.703 94.4033C287.441 95.1412 287.834 96.0267 287.834 97.109C287.834 98.1421 287.441 99.0275 286.703 99.8147C285.916 100.553 285.03 100.946 283.997 100.946ZM283.997 137.645C283.161 137.645 282.423 137.35 281.882 136.809C281.341 136.267 281.045 135.53 281.045 134.693V109.014C281.045 108.128 281.341 107.44 281.882 106.899C282.423 106.357 283.161 106.111 283.997 106.111C284.883 106.111 285.571 106.357 286.112 106.899C286.654 107.44 286.9 108.128 286.9 109.014V134.693C286.9 135.53 286.654 136.218 286.112 136.809C285.62 137.399 284.883 137.645 283.997 137.645Z" fill="#FBFEF9"/>
<path d="M312.726 137.891C309.529 137.891 306.676 137.202 304.216 135.825C301.756 134.447 299.788 132.578 298.362 130.167C296.935 127.757 296.246 125.002 296.246 121.903C296.246 118.754 296.886 115.95 298.214 113.54C299.542 111.129 301.363 109.26 303.724 107.882C306.085 106.505 308.742 105.816 311.792 105.816C314.793 105.816 317.351 106.456 319.515 107.784C321.68 109.112 323.303 110.933 324.435 113.245C325.566 115.557 326.156 118.262 326.156 121.312C326.156 122.05 325.91 122.641 325.419 123.133C324.927 123.625 324.287 123.871 323.5 123.871H300.231V119.246H323.303L320.942 120.87C320.893 118.951 320.499 117.229 319.81 115.704C319.072 114.179 318.039 112.999 316.711 112.113C315.383 111.228 313.71 110.785 311.792 110.785C309.578 110.785 307.709 111.277 306.184 112.212C304.609 113.195 303.429 114.474 302.642 116.147C301.855 117.82 301.412 119.738 301.412 121.854C301.412 123.969 301.904 125.838 302.838 127.511C303.822 129.184 305.151 130.463 306.823 131.446C308.496 132.43 310.464 132.873 312.677 132.873C313.858 132.873 315.088 132.676 316.367 132.234C317.597 131.791 318.63 131.299 319.417 130.709C320.007 130.266 320.597 130.069 321.286 130.069C321.975 130.069 322.565 130.266 323.057 130.659C323.697 131.25 324.041 131.889 324.09 132.578C324.139 133.267 323.844 133.857 323.156 134.349C321.827 135.382 320.204 136.218 318.285 136.907C316.367 137.546 314.497 137.891 312.726 137.891Z" fill="#FBFEF9"/>
<path d="M336.684 137.743C335.848 137.743 335.11 137.448 334.569 136.907C334.027 136.366 333.732 135.628 333.732 134.792V109.063C333.732 108.178 334.027 107.489 334.569 106.948C335.11 106.407 335.848 106.161 336.684 106.161C337.569 106.161 338.258 106.407 338.799 106.948C339.34 107.489 339.586 108.178 339.586 109.063V134.792C339.586 135.628 339.34 136.366 338.799 136.907C338.307 137.448 337.569 137.743 336.684 137.743ZM360.445 137.743C359.608 137.743 358.87 137.448 358.329 136.907C357.788 136.366 357.493 135.628 357.493 134.792V120.575C357.493 118.361 357.099 116.59 356.263 115.212C355.476 113.835 354.345 112.802 353.016 112.113C351.639 111.424 350.065 111.08 348.294 111.08C346.67 111.08 345.194 111.424 343.915 112.064C342.587 112.704 341.554 113.589 340.816 114.671C340.029 115.754 339.685 117.033 339.685 118.459H335.995C335.995 116.049 336.586 113.884 337.766 111.966C338.947 110.047 340.57 108.571 342.587 107.44C344.604 106.308 346.916 105.767 349.474 105.767C352.131 105.767 354.492 106.357 356.608 107.489C358.723 108.62 360.346 110.293 361.576 112.507C362.806 114.72 363.396 117.377 363.396 120.575V134.792C363.396 135.628 363.101 136.366 362.56 136.907C361.97 137.448 361.281 137.743 360.445 137.743Z" fill="#FBFEF9"/>
<path d="M387.452 137.891C384.451 137.891 381.746 137.202 379.335 135.775C376.925 134.349 375.006 132.479 373.629 130.02C372.202 127.609 371.513 124.854 371.513 121.804C371.513 118.754 372.153 116.049 373.432 113.638C374.711 111.228 376.482 109.309 378.696 107.932C380.909 106.505 383.467 105.816 386.272 105.816C388.534 105.816 390.65 106.308 392.568 107.243C394.487 108.178 396.11 109.457 397.439 111.08V95.4856C397.439 94.6001 397.734 93.9114 398.275 93.3702C398.816 92.8291 399.554 92.5831 400.39 92.5831C401.276 92.5831 401.964 92.8291 402.506 93.3702C403.047 93.9114 403.293 94.6001 403.293 95.4856V121.804C403.293 124.854 402.604 127.56 401.177 130.02C399.751 132.43 397.881 134.349 395.471 135.775C393.159 137.202 390.453 137.891 387.452 137.891ZM387.452 132.676C389.42 132.676 391.142 132.184 392.716 131.25C394.241 130.315 395.471 128.987 396.356 127.363C397.242 125.691 397.685 123.871 397.685 121.804C397.685 119.738 397.242 117.869 396.356 116.245C395.471 114.622 394.241 113.343 392.716 112.408C391.191 111.474 389.42 110.982 387.452 110.982C385.534 110.982 383.763 111.474 382.238 112.408C380.663 113.343 379.434 114.622 378.548 116.245C377.663 117.869 377.171 119.689 377.171 121.804C377.171 123.821 377.613 125.691 378.548 127.363C379.434 129.036 380.663 130.315 382.238 131.25C383.763 132.234 385.534 132.676 387.452 132.676Z" fill="#FBFEF9"/>
<path d="M428.037 137.891C424.938 137.891 422.183 137.202 419.773 135.825C417.362 134.447 415.493 132.578 414.165 130.167C412.787 127.757 412.098 125.002 412.098 121.903C412.098 118.754 412.787 115.95 414.165 113.54C415.542 111.129 417.411 109.26 419.773 107.882C422.134 106.505 424.889 105.816 428.037 105.816C431.136 105.816 433.842 106.505 436.253 107.882C438.663 109.26 440.533 111.129 441.861 113.54C443.238 115.95 443.927 118.705 443.927 121.903C443.927 125.002 443.238 127.806 441.91 130.167C440.582 132.578 438.712 134.447 436.302 135.825C433.891 137.202 431.136 137.891 428.037 137.891ZM428.037 132.676C430.054 132.676 431.825 132.234 433.35 131.299C434.875 130.364 436.105 129.085 436.941 127.511C437.827 125.888 438.22 124.018 438.22 121.903C438.22 119.787 437.778 117.918 436.941 116.295C436.056 114.671 434.875 113.392 433.35 112.458C431.825 111.523 430.054 111.08 428.037 111.08C426.02 111.08 424.249 111.523 422.724 112.458C421.199 113.392 419.969 114.671 419.084 116.295C418.198 117.918 417.756 119.787 417.756 121.903C417.756 124.018 418.198 125.888 419.084 127.511C419.969 129.134 421.199 130.413 422.724 131.299C424.249 132.234 426.02 132.676 428.037 132.676Z" fill="#FBFEF9"/>
<path d="M210.649 189.151C207.943 189.151 205.483 188.757 203.171 187.921C200.859 187.085 199.088 186.052 197.809 184.773C197.219 184.133 196.973 183.444 197.071 182.657C197.17 181.87 197.563 181.231 198.203 180.739C198.99 180.099 199.728 179.853 200.466 179.952C201.204 180.05 201.843 180.394 202.384 180.985C203.024 181.723 204.106 182.411 205.533 183.051C206.959 183.69 208.583 183.986 210.354 183.986C212.567 183.986 214.289 183.641 215.47 182.903C216.65 182.165 217.241 181.231 217.29 180.099C217.339 178.968 216.798 177.935 215.667 177.098C214.535 176.262 212.469 175.573 209.468 175.032C205.582 174.245 202.778 173.114 201.007 171.589C199.236 170.064 198.399 168.145 198.399 165.931C198.399 163.964 198.99 162.34 200.121 161.061C201.253 159.782 202.778 158.798 204.549 158.159C206.369 157.519 208.238 157.224 210.206 157.224C212.764 157.224 214.978 157.618 216.946 158.454C218.913 159.241 220.488 160.372 221.619 161.799C222.16 162.439 222.406 163.078 222.357 163.718C222.308 164.406 222.013 164.948 221.373 165.439C220.734 165.882 220.045 165.981 219.159 165.833C218.323 165.685 217.585 165.341 217.044 164.8C216.06 163.865 215.027 163.226 213.945 162.881C212.813 162.537 211.534 162.34 210.058 162.34C208.386 162.34 206.91 162.635 205.779 163.226C204.598 163.816 204.008 164.652 204.008 165.784C204.008 166.473 204.204 167.112 204.549 167.653C204.893 168.194 205.631 168.735 206.713 169.178C207.796 169.621 209.37 170.064 211.436 170.457C214.338 171.048 216.601 171.785 218.274 172.671C219.946 173.556 221.127 174.59 221.865 175.77C222.603 176.951 222.947 178.279 222.947 179.853C222.947 181.624 222.455 183.198 221.521 184.625C220.586 186.052 219.209 187.183 217.388 188.02C215.617 188.708 213.354 189.151 210.649 189.151Z" fill="#FF958C"/>
<path d="M244.789 189.151C241.69 189.151 238.935 188.462 236.525 187.085C234.114 185.707 232.245 183.838 230.917 181.428C229.539 179.017 228.851 176.262 228.851 173.163C228.851 170.015 229.539 167.21 230.917 164.8C232.294 162.389 234.164 160.52 236.525 159.143C238.886 157.765 241.641 157.076 244.789 157.076C247.889 157.076 250.594 157.765 253.005 159.143C255.415 160.52 257.285 162.389 258.613 164.8C259.99 167.21 260.679 169.965 260.679 173.163C260.679 176.262 259.99 179.066 258.662 181.428C257.334 183.838 255.465 185.707 253.054 187.085C250.693 188.462 247.938 189.151 244.789 189.151ZM244.789 183.936C246.806 183.936 248.577 183.494 250.102 182.559C251.627 181.624 252.857 180.345 253.694 178.771C254.579 177.148 254.973 175.278 254.973 173.163C254.973 171.048 254.53 169.178 253.694 167.555C252.808 165.931 251.627 164.652 250.102 163.718C248.577 162.783 246.806 162.34 244.789 162.34C242.772 162.34 241.001 162.783 239.476 163.718C237.951 164.652 236.722 165.931 235.836 167.555C234.951 169.178 234.508 171.048 234.508 173.163C234.508 175.278 234.951 177.148 235.836 178.771C236.722 180.394 237.951 181.673 239.476 182.559C241.051 183.494 242.822 183.936 244.789 183.936Z" fill="#FF958C"/>
<path d="M272.338 189.003C271.403 189.003 270.715 188.757 270.223 188.265C269.731 187.774 269.485 187.085 269.485 186.101V160.274C269.485 159.339 269.731 158.651 270.223 158.159C270.715 157.667 271.453 157.421 272.338 157.421C273.322 157.421 274.011 157.667 274.503 158.159C274.995 158.651 275.241 159.339 275.241 160.323V186.15C275.241 187.085 274.995 187.774 274.503 188.265C274.011 188.757 273.322 189.003 272.338 189.003ZM272.289 169.277C272.289 166.964 272.879 164.898 274.011 163.078C275.142 161.258 276.667 159.782 278.586 158.7C280.504 157.618 282.62 157.076 284.932 157.076C287.244 157.076 288.966 157.47 290.097 158.208C291.229 158.946 291.671 159.831 291.376 160.914C291.278 161.455 291.032 161.848 290.737 162.143C290.392 162.439 290.048 162.635 289.605 162.685C289.162 162.783 288.72 162.734 288.228 162.635C285.768 162.143 283.554 162.094 281.587 162.537C279.619 162.98 278.094 163.767 276.962 164.898C275.831 166.03 275.241 167.506 275.241 169.277H272.289Z" fill="#FF958C"/>
<path d="M300.477 202.384C299.641 202.384 298.903 202.089 298.362 201.548C297.821 201.007 297.526 200.269 297.526 199.433V173.163C297.575 170.113 298.263 167.407 299.641 164.948C301.018 162.537 302.888 160.618 305.298 159.192C307.659 157.765 310.365 157.076 313.366 157.076C316.416 157.076 319.122 157.765 321.483 159.192C323.844 160.618 325.763 162.488 327.19 164.948C328.616 167.358 329.305 170.113 329.305 173.163C329.305 176.213 328.665 178.919 327.386 181.329C326.107 183.74 324.336 185.658 322.123 187.036C319.909 188.462 317.351 189.151 314.547 189.151C312.284 189.151 310.168 188.659 308.299 187.724C306.38 186.79 304.757 185.511 303.429 183.887V199.482C303.429 200.318 303.183 201.007 302.642 201.597C302.051 202.138 301.313 202.384 300.477 202.384ZM313.366 183.936C315.334 183.936 317.056 183.444 318.63 182.51C320.155 181.575 321.385 180.296 322.319 178.623C323.205 177 323.697 175.131 323.697 173.114C323.697 171.048 323.254 169.178 322.319 167.555C321.434 165.931 320.204 164.652 318.63 163.668C317.105 162.734 315.334 162.242 313.366 162.242C311.447 162.242 309.676 162.734 308.151 163.668C306.577 164.603 305.347 165.882 304.462 167.555C303.576 169.178 303.134 171.048 303.134 173.114C303.134 175.131 303.576 177 304.462 178.623C305.347 180.247 306.577 181.526 308.151 182.51C309.726 183.444 311.447 183.936 313.366 183.936Z" fill="#FF958C"/>
<path d="M340.964 189.003C340.029 189.003 339.34 188.757 338.848 188.265C338.357 187.774 338.111 187.085 338.111 186.101V160.274C338.111 159.339 338.357 158.651 338.848 158.159C339.34 157.667 340.078 157.421 340.964 157.421C341.948 157.421 342.636 157.667 343.128 158.159C343.62 158.651 343.866 159.339 343.866 160.323V186.15C343.866 187.085 343.62 187.774 343.128 188.265C342.686 188.757 341.948 189.003 340.964 189.003ZM340.915 169.277C340.915 166.964 341.505 164.898 342.636 163.078C343.768 161.258 345.293 159.782 347.211 158.7C349.13 157.618 351.245 157.076 353.557 157.076C355.87 157.076 357.591 157.47 358.723 158.208C359.854 158.946 360.297 159.831 360.002 160.914C359.903 161.455 359.658 161.848 359.362 162.143C359.018 162.439 358.674 162.635 358.231 162.685C357.788 162.783 357.345 162.734 356.853 162.635C354.394 162.143 352.18 162.094 350.212 162.537C348.245 162.98 346.719 163.767 345.588 164.898C344.457 166.03 343.866 167.506 343.866 169.277H340.915Z" fill="#FF958C"/>
<path d="M378.696 189.151C375.498 189.151 372.645 188.462 370.185 187.085C367.725 185.707 365.758 183.838 364.331 181.428C362.904 179.017 362.216 176.262 362.216 173.163C362.216 170.015 362.855 167.21 364.183 164.8C365.512 162.389 367.332 160.52 369.693 159.143C372.054 157.765 374.711 157.076 377.761 157.076C380.762 157.076 383.32 157.716 385.484 159.044C387.649 160.372 389.272 162.193 390.404 164.505C391.535 166.817 392.126 169.523 392.126 172.573C392.126 173.311 391.88 173.901 391.388 174.393C390.896 174.885 390.256 175.131 389.469 175.131H366.2V170.506H389.272L386.911 172.13C386.862 170.211 386.468 168.489 385.78 166.964C385.042 165.439 384.009 164.259 382.68 163.373C381.352 162.488 379.68 162.045 377.761 162.045C375.547 162.045 373.678 162.537 372.153 163.472C370.579 164.456 369.398 165.735 368.611 167.407C367.824 169.08 367.381 170.998 367.381 173.114C367.381 175.229 367.873 177.098 368.808 178.771C369.792 180.444 371.12 181.723 372.792 182.707C374.465 183.69 376.433 184.133 378.646 184.133C379.827 184.133 381.057 183.936 382.336 183.494C383.566 183.051 384.599 182.559 385.386 181.969C385.976 181.526 386.567 181.329 387.255 181.329C387.944 181.329 388.534 181.526 389.026 181.919C389.666 182.51 390.01 183.149 390.059 183.838C390.109 184.527 389.813 185.117 389.125 185.609C387.797 186.642 386.173 187.478 384.255 188.167C382.287 188.807 380.467 189.151 378.696 189.151Z" fill="#FF958C"/>
<path d="M411.164 189.151C408.458 189.151 405.998 188.757 403.686 187.921C401.374 187.085 399.603 186.052 398.324 184.773C397.734 184.133 397.488 183.444 397.586 182.657C397.685 181.87 398.078 181.231 398.718 180.739C399.505 180.099 400.243 179.853 400.981 179.952C401.718 180.05 402.358 180.394 402.899 180.985C403.539 181.723 404.621 182.411 406.048 183.051C407.474 183.69 409.098 183.986 410.869 183.986C413.082 183.986 414.804 183.641 415.985 182.903C417.165 182.165 417.756 181.231 417.805 180.099C417.854 178.968 417.313 177.935 416.181 177.098C415.05 176.262 412.984 175.573 409.983 175.032C406.097 174.245 403.293 173.114 401.522 171.589C399.751 170.064 398.914 168.145 398.914 165.931C398.914 163.964 399.505 162.34 400.636 161.061C401.768 159.782 403.293 158.798 405.064 158.159C406.884 157.519 408.753 157.224 410.721 157.224C413.279 157.224 415.493 157.618 417.461 158.454C419.428 159.241 421.002 160.372 422.134 161.799C422.675 162.439 422.921 163.078 422.872 163.718C422.823 164.406 422.528 164.948 421.888 165.439C421.248 165.882 420.56 165.981 419.674 165.833C418.838 165.685 418.1 165.341 417.559 164.8C416.575 163.865 415.542 163.226 414.46 162.881C413.328 162.537 412.049 162.34 410.573 162.34C408.901 162.34 407.425 162.635 406.293 163.226C405.113 163.816 404.522 164.652 404.522 165.784C404.522 166.473 404.719 167.112 405.064 167.653C405.408 168.194 406.146 168.735 407.228 169.178C408.31 169.621 409.885 170.064 411.951 170.457C414.853 171.048 417.116 171.785 418.789 172.671C420.461 173.556 421.642 174.59 422.38 175.77C423.118 176.951 423.462 178.279 423.462 179.853C423.462 181.624 422.97 183.198 422.036 184.625C421.101 186.052 419.723 187.183 417.903 188.02C416.181 188.708 413.919 189.151 411.164 189.151Z" fill="#FF958C"/>
<path d="M444.222 189.151C441.418 189.151 438.909 188.462 436.646 187.036C434.432 185.609 432.661 183.74 431.382 181.329C430.103 178.919 429.464 176.213 429.464 173.163C429.464 170.113 430.153 167.407 431.579 164.948C433.006 162.537 434.875 160.618 437.286 159.192C439.696 157.765 442.402 157.076 445.403 157.076C448.404 157.076 451.109 157.765 453.471 159.192C455.832 160.618 457.75 162.488 459.177 164.948C460.604 167.358 461.292 170.113 461.292 173.163H458.98C458.98 176.213 458.341 178.919 457.062 181.329C455.783 183.74 454.012 185.658 451.798 187.036C449.535 188.413 447.026 189.151 444.222 189.151ZM445.354 183.936C447.321 183.936 449.043 183.444 450.617 182.51C452.142 181.575 453.372 180.296 454.258 178.623C455.143 177 455.586 175.131 455.586 173.114C455.586 171.048 455.143 169.178 454.258 167.555C453.372 165.931 452.142 164.652 450.617 163.668C449.092 162.734 447.321 162.242 445.354 162.242C443.435 162.242 441.664 162.734 440.139 163.668C438.565 164.603 437.335 165.882 436.449 167.555C435.564 169.178 435.072 171.048 435.072 173.114C435.072 175.131 435.515 177 436.449 178.623C437.335 180.247 438.565 181.526 440.139 182.51C441.664 183.444 443.435 183.936 445.354 183.936ZM458.292 188.954C457.455 188.954 456.767 188.659 456.176 188.118C455.635 187.577 455.34 186.839 455.34 186.003V177.148L456.422 171.048L461.194 173.114V186.003C461.194 186.839 460.899 187.528 460.358 188.118C459.817 188.659 459.128 188.954 458.292 188.954Z" fill="#FF958C"/>
<path d="M481.511 189.151C478.805 189.151 476.346 188.757 474.034 187.921C471.722 187.085 469.951 186.052 468.672 184.773C468.081 184.133 467.835 183.444 467.934 182.657C468.032 181.87 468.426 181.231 469.065 180.739C469.852 180.099 470.59 179.853 471.328 179.952C472.066 180.05 472.705 180.394 473.247 180.985C473.886 181.723 474.968 182.411 476.395 183.051C477.822 183.69 479.445 183.986 481.216 183.986C483.43 183.986 485.152 183.641 486.332 182.903C487.513 182.165 488.103 181.231 488.152 180.099C488.202 178.968 487.66 177.935 486.529 177.098C485.397 176.262 483.331 175.573 480.331 175.032C476.444 174.245 473.64 173.114 471.869 171.589C470.098 170.064 469.262 168.145 469.262 165.931C469.262 163.964 469.852 162.34 470.984 161.061C472.115 159.782 473.64 158.798 475.411 158.159C477.231 157.519 479.101 157.224 481.068 157.224C483.627 157.224 485.84 157.618 487.808 158.454C489.776 159.241 491.35 160.372 492.481 161.799C493.023 162.439 493.269 163.078 493.219 163.718C493.17 164.406 492.875 164.948 492.235 165.439C491.596 165.882 490.907 165.981 490.022 165.833C489.185 165.685 488.448 165.341 487.906 164.8C486.923 163.865 485.889 163.226 484.807 162.881C483.676 162.537 482.397 162.34 480.921 162.34C479.248 162.34 477.772 162.635 476.641 163.226C475.46 163.816 474.87 164.652 474.87 165.784C474.87 166.473 475.067 167.112 475.411 167.653C475.755 168.194 476.493 168.735 477.576 169.178C478.658 169.621 480.232 170.064 482.298 170.457C485.201 171.048 487.464 171.785 489.136 172.671C490.809 173.556 491.989 174.59 492.727 175.77C493.465 176.951 493.81 178.279 493.81 179.853C493.81 181.624 493.318 183.198 492.383 184.625C491.448 186.052 490.071 187.183 488.251 188.02C486.48 188.708 484.217 189.151 481.511 189.151Z" fill="#FF958C"/>
</svg>
